<svg width="24" height="24" viewBox="0 0 24 24" fill="none" xmlns="http://www.w3.org/2000/svg">
<g clip-path="url(#clip0_2482_76899)">
<g clip-path="url(#clip1_2482_76899)">
<path d="M13.9794 22H4V7.85524C4 4.62679 6.59223 2 9.77821 2H20V15.8996C20 19.2636 17.2991 22.0004 13.9794 22.0004V22ZM4.17484 21.8228H13.9794C17.2026 21.8228 19.8252 19.1653 19.8252 15.8992V2.17717H9.77821C6.6883 2.17717 4.17484 4.72458 4.17484 7.85524V21.8228ZM7.71221 18.2418V18.4562C7.71221 18.5365 7.68452 18.604 7.62869 18.6588C7.60013 18.6865 7.5694 18.7071 7.53608 18.7207C7.50276 18.7347 7.46597 18.7413 7.42616 18.7413H7.04057C7.00119 18.7413 6.96527 18.7343 6.93238 18.7207C6.89949 18.7071 6.86877 18.6865 6.84064 18.6588C6.78524 18.6014 6.75755 18.5339 6.75755 18.4562V17.7235C6.75755 17.6428 6.78524 17.5752 6.84064 17.5209C6.89689 17.466 6.96397 17.4384 7.0423 17.4384H7.58542C7.62263 17.4384 7.65336 17.4503 7.67716 17.4735C7.70053 17.4972 7.71265 17.5279 7.71265 17.5656C7.71265 17.6033 7.70096 17.634 7.67716 17.6568C7.65336 17.6796 7.62307 17.691 7.58542 17.691H7.01158V18.4883H7.45429V18.2194H7.34653C7.30932 18.2194 7.27859 18.2076 7.25565 18.1835C7.23228 18.1598 7.22103 18.1287 7.22103 18.091C7.22103 18.0532 7.23272 18.0221 7.25565 17.9989C7.27859 17.9756 7.30932 17.9638 7.34653 17.9638H7.58542C7.60229 17.9638 7.61831 17.9673 7.63345 17.9743C7.6486 17.9813 7.66201 17.9905 7.6737 18.0024C7.68538 18.0142 7.6949 18.0274 7.70183 18.0431C7.70875 18.0589 7.71221 18.0747 7.71221 18.0914V18.2418ZM10.2058 18.2471V18.6001C10.2058 18.6229 10.2023 18.6431 10.1954 18.6606C10.1885 18.6786 10.1789 18.6935 10.1673 18.7053C10.1556 18.7176 10.1422 18.7268 10.127 18.7334C10.1119 18.7395 10.0959 18.743 10.079 18.743C10.0621 18.743 10.0461 18.74 10.0305 18.7334C10.0154 18.7268 10.0015 18.7176 9.98983 18.7058C9.97815 18.6939 9.96862 18.679 9.9617 18.661C9.95478 18.6431 9.95131 18.6233 9.95131 18.6014V18.2172H9.50514V18.6137C9.50514 18.6338 9.50168 18.6518 9.49475 18.6676C9.48783 18.6834 9.47831 18.6966 9.46662 18.7075C9.45494 18.718 9.44152 18.7264 9.42638 18.7325C9.41123 18.7382 9.39522 18.7413 9.37834 18.7413C9.36146 18.7413 9.34502 18.7382 9.32987 18.7325C9.31429 18.7264 9.30088 18.7185 9.28919 18.7075C9.27751 18.6966 9.26799 18.6834 9.26106 18.6676C9.25414 18.6518 9.25068 18.6338 9.25068 18.6137V17.4375H9.91972C9.99762 17.4375 10.0647 17.4652 10.1205 17.52C10.1772 17.5739 10.2058 17.6415 10.2058 17.7226V17.9309C10.2058 17.9458 10.2036 17.9607 10.1993 17.9765C10.195 17.9918 10.1898 18.0068 10.1828 18.0208C10.1763 18.0348 10.1681 18.048 10.159 18.0598C10.15 18.0717 10.1409 18.0813 10.1309 18.0888C10.1802 18.1278 10.2053 18.1804 10.2053 18.2462L10.2058 18.2471ZM9.94958 17.9638L9.95131 17.6932H9.50514V17.9638H9.94958ZM12.4133 18.7417H12.0277C11.9879 18.7417 11.9515 18.7347 11.9182 18.7207C11.8849 18.7066 11.8542 18.6856 11.8256 18.6575C11.7983 18.6286 11.778 18.5975 11.7646 18.5637C11.7507 18.5299 11.7442 18.4931 11.7442 18.4527V17.727C11.7442 17.6467 11.7715 17.5792 11.8256 17.5244C11.881 17.4682 11.9485 17.4402 12.0273 17.4402H12.4129C12.4925 17.4402 12.56 17.4682 12.6158 17.5244C12.6712 17.5787 12.6993 17.6463 12.6993 17.727V18.4527C12.6993 18.4931 12.6924 18.5299 12.6786 18.5637C12.6647 18.5975 12.6439 18.6286 12.6163 18.6575C12.5596 18.7137 12.492 18.7417 12.4133 18.7417ZM12.4431 17.6972H11.9987V18.4826H12.4431V17.6972ZM14.9064 18.7417H14.5208C14.4442 18.7417 14.3776 18.7137 14.3209 18.6575C14.2932 18.6286 14.2724 18.5975 14.2586 18.5637C14.2447 18.5299 14.2378 18.4931 14.2378 18.4527V17.5673C14.2378 17.5288 14.2495 17.4981 14.2724 17.4748C14.2954 17.4516 14.3257 17.4397 14.3637 17.4397C14.4018 17.4397 14.4325 17.4511 14.4563 17.4748C14.4801 17.4981 14.4923 17.5288 14.4923 17.5673V18.4839H14.9384V17.5673C14.9384 17.5288 14.9501 17.4981 14.9739 17.4748C14.9973 17.4516 15.028 17.4397 15.0661 17.4397C15.1042 17.4397 15.134 17.4516 15.1578 17.4748C15.1812 17.4985 15.1933 17.5292 15.1933 17.5669V18.4523C15.1933 18.4926 15.1864 18.5295 15.1726 18.5632C15.1587 18.597 15.1379 18.6281 15.1102 18.6571C15.0536 18.7132 14.986 18.7413 14.9073 18.7413L14.9064 18.7417ZM17.4 18.2177H16.9854V18.6159C16.9854 18.6536 16.9733 18.6843 16.949 18.7071C16.9248 18.7299 16.8941 18.7413 16.8564 18.7413C16.8188 18.7413 16.7881 18.7294 16.7651 18.7062C16.7422 18.6825 16.7305 18.6523 16.7305 18.6159V17.7213C16.7305 17.6419 16.7582 17.5748 16.8136 17.5204C16.8698 17.4656 16.9365 17.438 17.0135 17.438H17.3991C17.4783 17.438 17.5458 17.4656 17.6021 17.5204C17.6575 17.5748 17.6856 17.6419 17.6856 17.7213V17.9313C17.6856 18.012 17.6579 18.0795 17.6021 18.1339C17.5454 18.1896 17.4779 18.2172 17.3991 18.2172L17.4 18.2177ZM16.9854 17.9638H17.4298V17.6893H16.9854V17.9638ZM9.83923 10.3044H6.97522C6.77529 10.3044 6.61517 10.2417 6.49443 10.1163C6.37412 9.99088 6.31353 9.82687 6.31353 9.62471C6.31353 9.42254 6.37455 9.26292 6.49659 9.1375C6.61863 9.01252 6.77832 8.94937 6.97479 8.94937H9.99589V8.45778H7.80266C7.59321 8.45778 7.40149 8.42138 7.22709 8.34946C7.05226 8.27711 6.89084 8.16835 6.74197 8.02407C6.59916 7.87278 6.49183 7.70921 6.42086 7.53205C6.34945 7.35532 6.31353 7.16105 6.31353 6.9488V6.78962C6.31353 6.36863 6.45635 6.01342 6.74197 5.72399C7.02759 5.43456 7.38721 5.28064 7.80309 5.28064H10.6671C10.864 5.28064 11.0241 5.34247 11.1479 5.46657C11.2717 5.59024 11.3335 5.75162 11.3335 5.95071C11.3335 6.1498 11.2717 6.31162 11.1479 6.43528C11.0241 6.55895 10.864 6.62078 10.6671 6.62078H7.65076V7.10316H9.82971C10.2452 7.10316 10.6005 7.2527 10.8956 7.55134C11.1873 7.8377 11.3331 8.19291 11.3331 8.61697V8.79501C11.3331 9.00726 11.2963 9.20153 11.2236 9.37825C11.1505 9.55542 11.0414 9.71899 10.8956 9.86984C10.6039 10.1593 10.2517 10.304 9.83966 10.304L9.83923 10.3044ZM16.1138 10.3044H14.0872C13.6843 10.3044 13.3338 10.1566 13.0356 9.86107C12.8898 9.71022 12.7803 9.54621 12.7076 9.36948C12.6344 9.19276 12.5981 8.99849 12.5981 8.78624V5.93141C12.5981 5.72881 12.6582 5.56568 12.779 5.44202C12.8993 5.31835 13.0598 5.25652 13.2598 5.25652C13.4597 5.25652 13.622 5.31835 13.7475 5.44202C13.873 5.56568 13.9353 5.72881 13.9353 5.93141V8.94937H16.2804V5.93141C16.2804 5.72881 16.3423 5.56568 16.4661 5.44202C16.5899 5.31835 16.7517 5.25652 16.9512 5.25652C17.1507 5.25652 17.3082 5.31923 17.432 5.44465C17.5558 5.56963 17.6177 5.73232 17.6177 5.93141V8.7858C17.6177 8.99805 17.5809 9.19232 17.5082 9.36904C17.435 9.54577 17.326 9.70978 17.1801 9.86063C16.882 10.1562 16.5267 10.304 16.1142 10.304L16.1138 10.3044ZM11.3331 15.5878C11.3331 15.6874 11.3167 15.779 11.2833 15.8628C11.25 15.9461 11.2042 16.0176 11.1453 16.0772C11.0864 16.1369 11.0168 16.1833 10.9358 16.2171C10.8549 16.2509 10.7653 16.2675 10.6671 16.2675H6.97522C6.88954 16.2675 6.80645 16.2483 6.72552 16.2097C6.6446 16.1715 6.57406 16.1206 6.51347 16.0579C6.45332 15.9952 6.40485 15.9229 6.36849 15.8409C6.33171 15.7589 6.31353 15.6747 6.31353 15.5878V14.5897C6.31353 14.1718 6.45937 13.8105 6.75105 13.5052C7.04274 13.2 7.39327 13.0474 7.80266 13.0474H10.0054V12.5747L6.97479 12.5843C6.77486 12.5843 6.61474 12.5225 6.494 12.3988C6.37369 12.2752 6.3131 12.1138 6.3131 11.9143C6.3131 11.7147 6.37326 11.5512 6.494 11.4319C6.6143 11.313 6.77486 11.2538 6.97479 11.2538H10.6667C10.7524 11.2538 10.835 11.2718 10.9142 11.3069C10.9934 11.342 11.0639 11.3902 11.1258 11.4512C11.1877 11.5121 11.2379 11.5823 11.2756 11.6608C11.3136 11.7397 11.3327 11.8239 11.3327 11.9138V12.8926C11.3327 13.1044 11.2959 13.2991 11.2232 13.4759C11.1501 13.6526 11.041 13.8162 10.8952 13.9675C10.597 14.263 10.2417 14.4108 9.82928 14.4108H7.65033V14.9121H10.6667C10.8636 14.9121 11.0237 14.9748 11.1475 15.1002C11.2712 15.2256 11.3331 15.3879 11.3331 15.5874V15.5878ZM16.1138 16.2675H14.0872C13.6843 16.2675 13.3338 16.1198 13.0356 15.8242C12.8898 15.6733 12.7803 15.5093 12.7076 15.3326C12.6344 15.1559 12.5981 14.9616 12.5981 14.7494V11.895C12.5981 11.6924 12.6582 11.5292 12.779 11.4056C12.8993 11.2819 13.0598 11.2201 13.2598 11.2201C13.4597 11.2201 13.622 11.2819 13.7475 11.4056C13.873 11.5292 13.9353 11.6924 13.9353 11.895V14.9129H16.2804V11.895C16.2804 11.6924 16.3423 11.5292 16.4661 11.4056C16.5899 11.2819 16.7517 11.2201 16.9512 11.2201C17.1507 11.2201 17.3082 11.2828 17.432 11.4082C17.5558 11.5332 17.6177 11.6959 17.6177 11.895V14.7494C17.6177 14.9616 17.5809 15.1559 17.5082 15.3326C17.435 15.5093 17.326 15.6733 17.1801 15.8242C16.882 16.1198 16.5267 16.2675 16.1142 16.2675H16.1138Z" fill="#F1F2F2"/>
</g>
</g>
<defs>
<clipPath id="clip0_2482_76899">
<rect width="24" height="24" fill="white" transform="translate(24) rotate(89.9986)"/>
</clipPath>
<clipPath id="clip1_2482_76899">
<rect width="16" height="20" fill="white" transform="translate(4 2)"/>
</clipPath>
</defs>
</svg>
