<svg width="25" height="24" viewBox="0 0 25 24" fill="none" xmlns="http://www.w3.org/2000/svg">
<g clip-path="url(#clip0_2482_77016)">
<g clip-path="url(#clip1_2482_77016)">
<path d="M19.812 17.6734C19.127 17.1817 18.3906 16.766 17.6157 16.4337C14.9572 17.5856 8.94205 18.4671 5.77557 18.87V16.8597C8.52759 16.6333 12.5613 16.0355 14.0858 15.6783L8.83279 14.4528C7.99232 14.5474 4.84527 14.893 4.00007 14.9476V21C7.84208 20.9238 16.8793 19.598 19.812 17.6734Z" fill="#CFCFCF"/>
<path d="M19.812 17.6734V15.3794C16.4548 12.8386 9.08914 12.7877 4.18865 10.6135C4.18077 10.6219 4.17236 10.6303 4.16553 10.6382V12.8344C7.88726 14.5469 15.5876 14.5794 19.812 17.6734Z" fill="#F3F3F3"/>
<path d="M5.37848 9.64436C5.37848 9.64436 4.56375 10.2033 4.18816 10.6135C4.9711 10.9544 5.77525 11.2442 6.5956 11.4813C7.20441 11.2712 8.88431 10.9219 9.24414 10.8509C7.52695 10.6035 6.40964 10.1056 5.37848 9.64436Z" fill="#E7E7E7"/>
<path d="M4.1887 6.32717C4.87392 6.81842 5.61029 7.23407 6.38497 7.56685C9.04559 6.41489 15.0581 5.53294 18.2246 5.13004V7.14031C15.4726 7.36724 11.4378 7.96449 9.91443 8.32221L15.1674 9.54875C16.0079 9.4542 19.1544 9.10804 20.0001 9.05393V3C16.1581 3.07617 7.12091 4.40094 4.1887 6.32717Z" fill="#CFCFCF"/>
<path d="M4.18872 6.32718V8.62058C7.54536 11.1619 14.9347 11.2129 19.8357 13.387C19.8431 13.3786 19.8357 11.1656 19.8357 11.1656C16.1129 9.45368 8.41263 9.42112 4.18872 6.32718Z" fill="#F3F3F3"/>
<path d="M18.6218 14.3556C18.6218 14.3556 19.4591 13.7973 19.8352 13.387C19.0428 13.0434 18.2292 12.7509 17.3994 12.5114C16.7906 12.7215 15.1159 13.0781 14.7561 13.1517C16.4733 13.3965 17.5901 13.895 18.6218 14.3556Z" fill="#E7E7E7"/>
</g>
</g>
<defs>
<clipPath id="clip0_2482_77016">
<rect width="24" height="24" fill="white" transform="translate(24.0012) rotate(89.9986)"/>
</clipPath>
<clipPath id="clip1_2482_77016">
<rect width="16" height="18" fill="white" transform="matrix(-1 0 0 -1 20.0001 21)"/>
</clipPath>
</defs>
</svg>
