<svg width="195" height="581" viewBox="0 0 195 581" fill="none" xmlns="http://www.w3.org/2000/svg">
<rect width="195" height="581" rx="24" fill="url(#paint0_linear_941_33674)"/>
<g opacity="0.8">
<path opacity="0.5" fill-rule="evenodd" clip-rule="evenodd" d="M195 286L195 24C195 10.7452 184.255 0 171 0L39 0C43.8785 1.78147 50.9525 3.7156 60.8534 5.78486C68.152 7.31027 74.7194 8.6256 80.6775 9.81889C120.916 17.878 133.363 20.3709 155.585 44.4198C180.207 71.0666 181.249 95.4768 180.694 131.452C180.427 148.779 177.576 158.758 174.692 168.854C171.589 179.719 168.447 190.718 168.447 211.155C168.447 243.272 183.14 274.745 195 286Z" fill="url(#paint1_linear_941_33674)"/>
<path opacity="0.5" fill-rule="evenodd" clip-rule="evenodd" d="M27.0005 1.32365C29.4688 0.466009 32.1203 0 34.8806 0L171 0C184.255 0 195 10.7451 195 24L195 462C182.386 442.414 168.015 390.079 168.015 338.91C168.015 305.768 170.996 288.757 173.948 271.909C176.682 256.307 179.391 240.844 179.686 212.838C180.301 154.589 164.865 121.372 141.602 77.2368C118.701 33.7896 99.227 27.1565 52.5948 11.2729C50.7732 10.6525 48.9103 10.0179 47.0041 9.36652C38.5481 6.47686 31.9903 3.79696 27.0005 1.32365Z" fill="url(#paint2_linear_941_33674)"/>
</g>
<g opacity="0.8">
<path opacity="0.5" fill-rule="evenodd" clip-rule="evenodd" d="M-3.05176e-05 163L-3.05176e-05 557C-3.05176e-05 570.255 10.7451 581 24 581H89C86.268 578.437 82.4382 575.614 77.2266 572.526C76.2319 571.936 75.2598 571.362 74.3093 570.801C49.9758 556.43 39.814 550.429 27.8639 511.119C15.7245 471.187 7.67009 441.134 7.99062 388.432C8.14474 363.093 9.55857 349.103 10.9851 334.987C12.5256 319.743 14.0809 304.353 14.0809 274.367C14.0809 228.071 6.58218 180.72 -3.05176e-05 163Z" fill="url(#paint3_linear_941_33674)"/>
<path opacity="0.5" fill-rule="evenodd" clip-rule="evenodd" d="M-0.000930786 359V557C-0.000930786 570.255 10.7442 581 23.9991 581H165C159.84 579.616 152.358 578.114 141.885 576.507C83.3694 567.526 79.3136 566.497 44.4725 544.738C15.1481 526.425 11.5806 508.063 12.1675 480.122C12.4505 466.647 15.743 458.942 19.0765 451.141C22.6552 442.767 26.281 434.282 26.281 418.428C26.281 393.541 12.1671 368.078 -0.000930786 359Z" fill="url(#paint4_linear_941_33674)"/>
</g>
<path d="M123.099 80.7118C122.541 74.6047 120.147 69.8603 115.915 66.4787C111.683 63.0971 105.94 61.4062 98.6858 61.4062C93.7566 61.4062 89.5947 62.1633 86.2 63.6775C82.8054 65.1412 80.2012 67.1853 78.3877 69.8098C76.6206 72.4344 75.737 75.4122 75.737 78.7434C75.644 81.5193 76.1788 83.942 77.3414 86.0113C78.5504 88.0807 80.2012 89.8724 82.2938 91.3866C84.3864 92.8503 86.8045 94.1373 89.5482 95.2477C92.2918 96.3076 95.2214 97.2161 98.337 97.9732L111.172 101.304C117.403 102.818 123.123 104.837 128.331 107.361C133.539 109.885 138.05 112.989 141.863 116.673C145.676 120.357 148.629 124.698 150.722 129.695C152.861 134.691 153.953 140.42 154 146.88C153.953 156.369 151.721 164.596 147.304 171.561C142.933 178.476 136.608 183.851 128.331 187.687C120.1 191.472 110.172 193.365 98.5463 193.365C87.0138 193.365 76.9693 191.447 68.413 187.611C59.9031 183.775 53.2533 178.097 48.4636 170.577C43.7204 163.006 41.2325 153.644 41 142.489H70.2265C70.5521 147.688 71.9239 152.029 74.342 155.511C76.8066 158.943 80.085 161.543 84.1772 163.309C88.3158 165.025 92.9893 165.883 98.1975 165.883C103.313 165.883 107.754 165.076 111.52 163.46C115.334 161.845 118.286 159.599 120.379 156.722C122.472 153.846 123.518 150.54 123.518 146.805C123.518 143.322 122.565 140.395 120.658 138.023C118.798 135.65 116.054 133.632 112.427 131.966C108.847 130.3 104.452 128.786 99.2438 127.424L83.6889 123.184C71.6449 120.004 62.1352 115.033 55.1599 108.269C48.1846 101.506 44.7202 92.396 44.7667 80.9389C44.7202 71.5511 47.022 63.3494 51.6722 56.3338C56.3689 49.3182 62.8095 43.842 70.9938 39.9052C79.1782 35.9684 88.4786 34 98.8951 34C109.498 34 118.751 35.9684 126.657 39.9052C134.609 43.842 140.793 49.3182 145.211 56.3338C149.629 63.3494 151.907 71.4754 152.047 80.7118H123.099Z" fill="url(#paint5_linear_941_33674)"/>
<path d="M44.0691 364.282V344.825L115.357 236.26H43.9296V209.233H153.302V228.69L81.9451 337.255H153.442V364.282H44.0691Z" fill="url(#paint6_linear_941_33674)"/>
<path d="M123.099 432.347C122.541 426.24 120.147 421.495 115.915 418.113C111.683 414.732 105.94 413.041 98.6858 413.041C93.7566 413.041 89.5947 413.798 86.2 415.312C82.8054 416.776 80.2012 418.82 78.3877 421.445C76.6206 424.069 75.737 427.047 75.737 430.378C75.644 433.154 76.1788 435.577 77.3414 437.646C78.5504 439.716 80.2012 441.507 82.2938 443.021C84.3864 444.485 86.8045 445.772 89.5482 446.883C92.2918 447.942 95.2214 448.851 98.337 449.608L111.172 452.939C117.403 454.453 123.123 456.472 128.331 458.996C133.539 461.52 138.05 464.623 141.863 468.308C145.676 471.992 148.629 476.333 150.722 481.33C152.861 486.326 153.953 492.055 154 498.515C153.953 508.004 151.721 516.231 147.304 523.196C142.933 530.111 136.608 535.486 128.331 539.322C120.1 543.107 110.172 545 98.5463 545C87.0138 545 76.9693 543.082 68.413 539.246C59.9031 535.41 53.2533 529.732 48.4636 522.212C43.7204 514.641 41.2325 505.279 41 494.124H70.2265C70.5521 499.323 71.9239 503.664 74.342 507.146C76.8066 510.578 80.085 513.177 84.1772 514.944C88.3158 516.66 92.9893 517.518 98.1975 517.518C103.313 517.518 107.754 516.71 111.52 515.095C115.334 513.48 118.286 511.234 120.379 508.357C122.472 505.48 123.518 502.175 123.518 498.44C123.518 494.957 122.565 492.03 120.658 489.657C118.798 487.285 116.054 485.266 112.427 483.601C108.847 481.935 104.452 480.421 99.2438 479.058L83.6889 474.819C71.6449 471.639 62.1352 466.668 55.1599 459.904C48.1846 453.141 44.7202 444.031 44.7667 432.574C44.7202 423.186 47.022 414.984 51.6722 407.969C56.3689 400.953 62.8095 395.477 70.9938 391.54C79.1782 387.603 88.4786 385.635 98.8951 385.635C109.498 385.635 118.751 387.603 126.657 391.54C134.609 395.477 140.793 400.953 145.211 407.969C149.629 414.984 151.907 423.11 152.047 432.347H123.099Z" fill="url(#paint7_linear_941_33674)"/>
<defs>
<linearGradient id="paint0_linear_941_33674" x1="0" y1="0" x2="350.516" y2="117.643" gradientUnits="userSpaceOnUse">
<stop stop-color="#FF9679"/>
<stop offset="1" stop-color="#E55C79"/>
</linearGradient>
<linearGradient id="paint1_linear_941_33674" x1="39" y1="0" x2="279.459" y2="131.159" gradientUnits="userSpaceOnUse">
<stop stop-color="#25109A"/>
<stop offset="1" stop-color="#7F028C"/>
</linearGradient>
<linearGradient id="paint2_linear_941_33674" x1="27.0005" y1="0" x2="323.759" y2="107.912" gradientUnits="userSpaceOnUse">
<stop stop-color="#25109A"/>
<stop offset="1" stop-color="#7F028C"/>
</linearGradient>
<linearGradient id="paint3_linear_941_33674" x1="89" y1="581" x2="-81.2804" y2="544.744" gradientUnits="userSpaceOnUse">
<stop stop-color="#25109A"/>
<stop offset="1" stop-color="#7F028C"/>
</linearGradient>
<linearGradient id="paint4_linear_941_33674" x1="165" y1="581" x2="-47.5733" y2="423.006" gradientUnits="userSpaceOnUse">
<stop stop-color="#25109A"/>
<stop offset="1" stop-color="#7F028C"/>
</linearGradient>
<linearGradient id="paint5_linear_941_33674" x1="41" y1="34" x2="256.464" y2="81.6466" gradientUnits="userSpaceOnUse">
<stop stop-color="#FFC0AF"/>
<stop offset="1" stop-color="#EF9DAF"/>
</linearGradient>
<linearGradient id="paint6_linear_941_33674" x1="41" y1="34" x2="256.464" y2="81.6466" gradientUnits="userSpaceOnUse">
<stop stop-color="#FFC0AF"/>
<stop offset="1" stop-color="#EF9DAF"/>
</linearGradient>
<linearGradient id="paint7_linear_941_33674" x1="41" y1="34" x2="256.464" y2="81.6466" gradientUnits="userSpaceOnUse">
<stop stop-color="#FFC0AF"/>
<stop offset="1" stop-color="#EF9DAF"/>
</linearGradient>
</defs>
</svg>
