<svg width="224" height="288" viewBox="0 0 224 288" fill="none" xmlns="http://www.w3.org/2000/svg">
<path d="M122.691 110.852C132.331 114.076 142.371 115.973 152.529 116.491C158.096 116.763 163.7 116.632 169.2 117.515C170.18 117.581 171.114 117.953 171.869 118.577C172.411 119.229 172.773 120.009 172.92 120.842C174.605 127.12 176.29 133.473 176.508 139.966C176.725 146.46 175.334 153.217 171.386 158.405L151.507 152.343C150.478 152.108 149.51 151.659 148.667 151.028C148.041 150.397 147.532 149.662 147.162 148.857L138.642 132.881L122.691 110.852Z" fill="#853622"/>
<path d="M7.01227 135.662C11.3573 137.627 15.7781 139.628 20.5208 140.361C24.5717 141.133 28.7637 140.644 32.5241 138.961C34.305 138.115 35.8807 136.896 37.1437 135.39C38.3075 133.963 39.2635 132.382 39.9836 130.691C41.4983 127.223 42.3692 123.502 44.0258 120.081C44.8004 118.429 45.8252 116.905 47.0645 115.561C48.3014 114.275 49.6904 113.142 51.2013 112.187C54.3536 110.138 57.8278 108.635 61.0747 106.83C64.6151 105.11 67.7031 102.595 70.0939 99.4846C72.4847 96.3738 74.1125 92.7528 74.8483 88.9088C76.893 79.8305 74.8483 70.5362 71.961 61.8715C71.5919 60.7437 71.2037 59.6254 70.8156 58.5071C70.56 57.7741 69.3673 58.0936 69.6228 58.836C72.6426 67.4537 75.4068 76.6917 74.1572 85.8639C73.6669 89.7478 72.3781 93.4902 70.3707 96.8592C68.3769 100.053 65.6361 102.723 62.3811 104.641C56.2847 108.4 48.8063 110.617 44.537 116.707C42.3976 119.761 41.3373 123.408 40.1162 126.894C38.895 130.381 37.494 133.764 34.6635 136.151C31.8331 138.538 27.6679 139.572 23.8624 139.478C19.3091 139.365 14.9356 137.768 10.8083 135.982C9.74806 135.521 8.68782 135.042 7.62759 134.563C7.48574 134.481 7.31678 134.458 7.1579 134.499C6.99901 134.541 6.8632 134.643 6.78035 134.784C6.6975 134.925 6.67439 135.092 6.71611 135.25C6.75783 135.408 6.86096 135.543 7.00281 135.625L7.01227 135.662Z" fill="#E57B61"/>
<path d="M112.903 159.674C90.9911 178.714 69.0796 197.75 47.1681 216.784C43.9874 219.603 40.4754 223.203 41.3937 227.309C42.2456 231.069 46.4108 233.042 50.0838 234.386C80.2191 245.378 111.344 253.485 143.034 258.595C143.091 268.368 143.409 277.943 142.79 287.698C151.154 276.653 157.02 264.499 161.323 251.358C147.19 248.802 135.31 239.733 123.23 231.99C111.151 224.246 97.0559 217.414 82.9416 220.092C106.082 213.274 127.762 202.287 146.896 187.679C149.121 185.978 151.393 184.136 152.576 181.618C154.593 177.464 153.21 172.22 150.172 168.771C147.133 165.322 142.731 163.245 138.301 161.854C129.509 159.095 120.175 158.486 111.095 160.078L112.903 159.674Z" fill="#FCEFEB"/>
<path d="M150.418 246.847C148.685 250.231 151.147 254.262 150.825 258.049C150.427 262.748 146.025 265.915 143.772 270.032C140.828 275.407 141.727 281.967 142.721 288C154.081 278.696 159.467 264.243 164.409 250.484C164.513 250.279 164.574 250.055 164.589 249.826C164.604 249.596 164.571 249.366 164.494 249.15C164.274 248.845 163.957 248.624 163.595 248.52C160.387 247.221 157.11 246.098 153.778 245.156C153.149 244.913 152.464 244.848 151.8 244.968C151.472 245.04 151.184 245.234 150.996 245.51C150.808 245.786 150.733 246.124 150.787 246.453L150.418 246.847Z" fill="#B2482E"/>
<path d="M85.4793 150.774C86.6247 161.112 89.0765 185.546 86.4259 189.173C83.2073 193.571 75.4165 202.537 74.2427 207.847C77.4044 206.907 80.3485 203.354 83.5008 202.368C83.5008 207.33 87.1264 216.596 89.7013 221.68C89.8226 221.917 90.0262 222.102 90.2744 222.201C90.5226 222.3 90.7986 222.307 91.0514 222.22C91.3042 222.133 91.5167 221.958 91.6496 221.727C91.7825 221.497 91.8268 221.226 91.7744 220.966C90.8846 216.54 87.9878 209.482 88.234 205.234C88.357 209.792 92.4086 216.906 95.2391 221.267C95.3759 221.51 95.601 221.694 95.8688 221.779C96.1366 221.864 96.427 221.845 96.681 221.725C96.9351 221.606 97.1339 221.395 97.2371 221.135C97.3402 220.875 97.34 220.586 97.2365 220.327C96.0343 216.352 93.2511 209.886 93.3647 205.986C93.857 209.435 97.0282 215.91 99.0446 219.387C99.1644 219.599 99.3515 219.765 99.5767 219.86C99.8018 219.955 100.052 219.974 100.289 219.913C100.526 219.851 100.736 219.714 100.885 219.522C101.035 219.33 101.117 219.094 101.118 218.851C101.118 214.81 98.912 207.856 98.2778 204.106C98.9215 207.038 100.029 213.589 101.506 216.399C101.623 216.614 101.809 216.785 102.036 216.884C102.262 216.982 102.515 217.003 102.754 216.943C102.993 216.882 103.206 216.744 103.357 216.55C103.508 216.356 103.589 216.117 103.588 215.872C103.588 209.237 99.7072 199.342 97.9749 193.158C96.0343 186.241 97.9181 178.902 99.7924 171.966L108.151 141.141C101.643 139.857 94.8859 140.998 89.1711 144.346C86.7194 145.793 84.3528 149.13 86.388 151.112L85.4793 150.774Z" fill="#F2BDB0"/>
<path d="M83.084 146.132C85.318 152.842 85.0625 160.078 84.7879 167.136L101.335 174.466C104.541 168.426 107.254 162.141 109.448 155.67C102.329 152.093 95.3082 148.334 88.3852 144.393L83.084 146.132Z" fill="#B2482E"/>
<path d="M27.4121 135.898C24.9083 138.429 21.6232 140.055 18.0804 140.516C14.5376 140.978 10.9411 140.249 7.8642 138.445C4.78731 136.642 2.40719 133.868 1.10326 130.565C-0.200674 127.262 -0.353347 123.621 0.669575 120.222C4.14373 108.663 19.9715 102.79 20.549 90.7418C20.8897 83.5713 15.3519 77.1903 15.2288 70.0104C15.0395 58.1129 29.3716 49.467 28.6427 37.5976C28.3776 33.2089 26.0205 29.2243 25.0549 24.9389C22.7452 14.7424 29.6461 3.32416 39.7941 0.626999C49.942 -2.07014 61.7087 4.21684 64.9273 14.1596C67.7672 23.0499 64.5297 33.5566 69.4049 41.5352C71.0804 44.2794 73.5701 46.4221 75.6906 48.8467C86.3592 61.0638 85.7439 81.4663 74.3653 93.0631C72.472 94.999 70.2853 96.7564 69.0641 99.1716C65.9875 105.271 65.9781 122.666 60.4024 126.622C53.5393 131.547 47.3009 112.732 39.5764 116.228C36.3767 117.685 34.6728 121.153 32.0033 123.446C29.826 125.325 26.9577 126.463 25.2916 128.793C23.6255 131.124 24.345 135.372 27.1849 135.56L27.4121 135.898Z" fill="#B2482E"/>
<path d="M16.6393 134.225C22.3508 135.535 27.9116 137.424 33.2338 139.863C33.7261 140.08 33.9533 144.929 33.8776 148.97C33.8776 150.276 39.8414 145.37 40.1254 145.267C40.8637 144.985 48.9575 150.502 50.3396 148.35C51.6081 146.357 59.4462 133.388 61.7749 132.947C62.3108 132.924 62.8349 132.783 63.3085 132.533C63.5509 132.287 63.7358 131.991 63.8503 131.667C63.9648 131.342 64.0061 130.996 63.9711 130.654C64.1644 128.664 64.0172 126.656 63.5357 124.714C63.282 123.748 62.7887 122.86 62.1009 122.131C61.4131 121.402 60.5526 120.856 59.5977 120.542C57.818 120.091 55.8111 120.748 54.1545 119.95C54.8266 117.337 54.3533 114.311 52.2612 112.431C50.1692 110.552 46.5057 110.871 45.2183 113.24C44.9922 113.817 44.7033 114.369 44.3568 114.884C43.2209 116.191 41.1004 115.58 39.5195 114.884L25.32 108.513L15.3613 132.561L16.6393 134.225Z" fill="#FCEFEB"/>
<path d="M119.908 104.472C129.705 108.118 152.775 116.99 154.839 120.993C157.338 125.842 161.863 136.791 166.113 140.221C166.653 136.978 164.835 132.787 165.365 129.545C169.814 131.829 179.802 132.768 185.529 132.787C185.798 132.789 186.058 132.693 186.262 132.517C186.465 132.342 186.597 132.099 186.633 131.834C186.669 131.57 186.606 131.301 186.457 131.078C186.308 130.856 186.082 130.695 185.822 130.626C181.439 129.413 173.79 128.746 170.089 126.65C174.235 128.605 182.462 128.229 187.659 127.694C187.927 127.67 188.179 127.551 188.365 127.357C188.551 127.163 188.659 126.908 188.67 126.641C188.68 126.373 188.592 126.111 188.422 125.903C188.251 125.696 188.01 125.557 187.744 125.513C183.626 124.78 176.555 124.32 173.099 122.468C176.422 123.587 183.673 123.7 187.715 123.493C187.959 123.48 188.191 123.388 188.376 123.23C188.561 123.073 188.689 122.86 188.739 122.624C188.79 122.387 188.761 122.141 188.656 121.922C188.551 121.704 188.377 121.526 188.16 121.416C184.525 119.593 177.293 118.399 173.648 117.243C176.573 117.995 182.954 119.978 186.144 119.94C186.393 119.937 186.633 119.851 186.827 119.695C187.02 119.539 187.155 119.324 187.209 119.083C187.264 118.842 187.235 118.589 187.128 118.366C187.021 118.144 186.841 117.963 186.617 117.854C180.635 114.884 170.013 113.823 163.661 112.563C156.571 111.163 150.825 106.182 145.448 101.38C137.465 94.2752 129.491 87.1674 121.527 80.0564C117.439 85.2442 115.417 91.7438 115.847 98.3162C116.036 101.136 117.967 104.735 120.665 103.833L119.908 104.472Z" fill="#FCEFEB"/>
<path d="M118.469 168.273L101.553 253.351C100.729 257.476 100.199 262.495 103.446 265.192C106.456 267.682 110.943 266.686 114.683 265.521C145.309 255.96 174.944 243.514 203.184 228.353C209.229 236.059 215.013 243.959 220.535 252.054C220.368 238.237 217.892 224.543 213.209 211.531C200.448 218.109 185.463 218.109 171.14 219.284C156.817 220.459 141.434 223.607 131.911 234.32C146.045 214.897 156.455 193.056 162.62 169.889C163.34 167.183 164.002 164.354 163.415 161.629C162.469 157.108 158.162 153.838 153.608 152.917C149.055 151.996 144.322 153.049 139.958 154.628C131.301 157.758 123.533 162.916 117.314 169.664L118.469 168.273Z" fill="#FCEFEB"/>
<path d="M44.4988 114.715C39.3207 119.414 29.4851 115.655 24.8371 120.87C22.4705 123.558 22.5463 127.449 22.1487 131.039C22.0826 132.079 21.7954 133.095 21.3062 134.018C19.9998 136.142 16.7907 136.574 14.6797 135.286C13.6419 134.579 12.7946 133.631 12.212 132.523C11.6294 131.415 11.3293 130.183 11.3381 128.933C11.3762 126.434 11.9472 123.971 13.0136 121.707C15.5695 115.551 19.375 109.762 24.7519 105.731C30.1288 101.699 37.2191 99.7535 43.6847 101.342L44.4988 114.715Z" fill="#B2482E"/>
<path d="M43.3345 143.331C43.0884 140.963 45.3887 139.29 47.7553 139.657L46.8087 143.162C45.7153 143.351 44.6035 143.415 43.4955 143.35L43.3345 143.331Z" fill="white"/>
<path d="M43.9496 143.331V142.908V142.729V142.607C43.9496 142.673 43.9496 142.673 43.9496 142.607L44.0253 142.278L44.0916 142.09V142.006C44.2829 141.585 44.5755 141.217 44.9436 140.934L45.0288 140.859L45.1708 140.765L45.521 140.568C45.5764 140.547 45.6302 140.522 45.682 140.493C45.8145 140.436 45.6252 140.493 45.7482 140.493C45.8713 140.493 46.0133 140.408 46.1458 140.371C46.2792 140.333 46.4153 140.304 46.5529 140.286C46.6854 140.286 46.4771 140.286 46.6286 140.286C46.6884 140.281 46.7486 140.281 46.8085 140.286C46.9505 140.286 47.0925 140.286 47.2344 140.286C47.2975 140.291 47.3608 140.291 47.4238 140.286C47.4238 140.286 47.6794 140.286 47.5658 140.286L47.1398 139.534L46.1931 143.04L46.6286 142.607C45.5876 142.781 44.5301 142.838 43.4763 142.776C43.3139 142.779 43.1588 142.844 43.0439 142.958C42.929 143.072 42.8634 143.226 42.861 143.387C42.8633 143.549 42.9286 143.704 43.0433 143.82C43.1579 143.935 43.313 144.003 43.4763 144.008C44.6388 144.063 45.8039 143.99 46.9505 143.791C47.0549 143.764 47.1501 143.709 47.2266 143.633C47.303 143.557 47.358 143.463 47.3859 143.359L48.3326 139.863C48.3765 139.706 48.3564 139.538 48.2767 139.396C48.197 139.253 48.064 139.148 47.9066 139.102C47.2443 138.987 46.565 139.01 45.9127 139.172C45.2604 139.334 44.6496 139.63 44.12 140.042C43.6203 140.429 43.2267 140.935 42.9753 141.513C42.7239 142.091 42.6227 142.723 42.6811 143.35C42.6859 143.51 42.7522 143.663 42.8666 143.776C42.981 143.89 43.1347 143.956 43.2964 143.96C43.3772 143.96 43.4572 143.945 43.5319 143.914C43.6066 143.883 43.6744 143.838 43.7315 143.782C43.7887 143.725 43.834 143.658 43.8649 143.583C43.8958 143.509 43.9118 143.43 43.9118 143.35L43.9496 143.331Z" fill="#E57B61"/>
<path d="M37.5694 134.723C37.7834 134.759 38.0026 134.752 38.214 134.704C38.4255 134.655 38.6252 134.565 38.8013 134.439C38.9775 134.313 39.1267 134.154 39.2402 133.97C39.3538 133.786 39.4294 133.582 39.4627 133.369C39.51 133.055 39.4628 132.734 39.3271 132.446C39.1914 132.158 38.9732 131.916 38.6998 131.75C38.4264 131.585 38.11 131.503 37.79 131.515C37.4701 131.528 37.1608 131.633 36.901 131.819C36.6411 132.005 36.4422 132.262 36.3291 132.56C36.216 132.857 36.1937 133.181 36.2651 133.491C36.3364 133.801 36.4982 134.083 36.7302 134.302C36.9622 134.521 37.2541 134.667 37.5694 134.723Z" fill="#1B1B1B"/>
<path d="M47.0455 114.123C47.4936 116.254 48.488 118.235 49.9328 119.874C49.9899 119.931 50.0578 119.976 50.1325 120.007C50.2072 120.037 50.2873 120.053 50.3682 120.053C50.4491 120.053 50.5292 120.037 50.6039 120.007C50.6786 119.976 50.7465 119.931 50.8037 119.874C50.917 119.758 50.9804 119.603 50.9804 119.442C50.9804 119.28 50.917 119.125 50.8037 119.009C49.5121 117.518 48.6286 115.722 48.2383 113.794C48.1944 113.637 48.0894 113.503 47.9465 113.423C47.8036 113.343 47.6344 113.322 47.4762 113.366C47.3181 113.41 47.1838 113.514 47.1031 113.656C47.0223 113.798 47.0016 113.965 47.0455 114.123Z" fill="#E57B61"/>
<path d="M49.9515 114.17L48.8155 117.647C48.7718 117.802 48.7921 117.969 48.872 118.11C48.9518 118.251 49.0847 118.355 49.2415 118.398C49.4007 118.437 49.5687 118.413 49.7112 118.333C49.8536 118.253 49.9599 118.122 50.0083 117.966L51.1442 114.498C51.1882 114.341 51.1675 114.173 51.0867 114.032C51.0059 113.89 50.8717 113.786 50.7135 113.742C50.5554 113.698 50.3862 113.719 50.2433 113.799C50.1004 113.879 49.9954 114.012 49.9515 114.17Z" fill="#E57B61"/>
<path d="M27.9135 131.527L29.3051 132.157C29.4361 132.265 29.5903 132.343 29.7559 132.383C29.9214 132.424 30.0942 132.427 30.261 132.391C30.4278 132.356 30.5844 132.284 30.7189 132.18C30.8534 132.076 30.9623 131.942 31.0375 131.79L34.6631 127.026C31.9821 127.717 29.598 129.25 27.8662 131.396L27.9135 131.527Z" fill="#E57B61"/>
<path d="M153.466 150.934C158.332 153.951 163.567 157.4 165.271 162.841C166.388 166.403 165.772 170.265 164.902 173.902C160.168 193.637 148.61 210.929 137.231 227.751C149.805 220.204 164.563 217.058 179.148 218.814L184.828 245.597C161.815 251.236 141.491 265.21 118.393 270.577C112.581 271.93 105.841 272.531 101.212 268.782C95.8822 264.468 95.8065 256.518 96.5543 249.723C97.8875 237.613 100.376 225.655 103.985 214.012C99.3076 216.974 94.2477 219.294 88.9434 220.909C98.3209 219.784 107.804 221.876 115.818 226.839C116.292 227.067 116.672 227.449 116.898 227.92C117.007 228.443 116.934 228.986 116.689 229.461C113.232 238.535 109.276 247.414 104.837 256.057C87.6181 248.238 69.49 242.599 51.3051 237.412C48.096 236.472 44.8301 235.532 42.047 233.737C39.2639 231.942 37.0109 228.982 36.8499 225.684C36.6322 221.285 39.9738 217.611 43.1072 214.5C61.8412 195.893 81.3419 177.501 104.705 165.096C108.264 170.246 115.582 171.675 121.678 170.134C127.774 168.592 132.934 164.692 137.913 160.877L149.926 151.676L153.466 150.934Z" fill="#853622"/>
<path d="M57.4961 121.265C59.9006 110.514 70.5408 102.77 81.5785 101.633C92.6163 100.496 103.654 105.054 112.316 111.97C120.978 118.887 127.566 127.947 133.71 137.109C139.21 145.332 155.331 143.603 156.618 153.405C156.798 154.777 141.576 190.31 115.743 180.79C115.061 180.546 114.342 181.354 113.632 181.194C112.685 180.978 112.117 180.085 111.634 179.258L100.975 161.186C98.7789 157.427 95.6456 153.245 91.3289 153.668C88.3849 153.931 81.02 156.074 80.0355 153.959C77.276 148.237 73.674 142.954 69.348 138.284C64.7412 133.483 60.8778 128.029 57.8842 122.101L57.4961 121.33V121.265Z" fill="#E57B61"/>
<path d="M91.9064 140.587C105.614 142.401 142.854 154.683 156.618 153.377C156.751 145.793 141.662 124.723 141.794 117.149C141.794 116.002 120.315 108.174 115.08 107.901L125.361 107.732C124.201 99.7228 124.201 91.5897 125.361 83.5801C125.563 82.7869 125.503 81.9501 125.19 81.1932C124.749 80.5733 124.113 80.1169 123.382 79.8963C114.862 76.5413 105.263 79.6895 97.1697 83.8715C84.8066 90.262 69.8592 95.2804 60.904 105.881C59.3184 107.818 57.9974 109.954 56.9754 112.234C55.7328 114.933 55.5415 117.993 56.4383 120.824C57.3352 123.654 59.2566 126.055 61.8317 127.562C70.1432 132.467 83.1594 139.421 91.9064 140.587Z" fill="#853622"/>
<path d="M205.275 215.544C205.758 219.303 210.075 221.277 211.949 224.585C214.259 228.663 212.432 233.766 212.896 238.437C213.502 244.517 217.96 249.442 222.192 253.887C226.31 239.865 222.608 224.885 218.898 210.751C218.87 210.525 218.796 210.306 218.681 210.109C218.565 209.912 218.41 209.74 218.225 209.605C217.867 209.478 217.476 209.478 217.118 209.605C213.729 210.317 210.382 211.214 207.093 212.292C206.437 212.443 205.835 212.768 205.351 213.232C205.118 213.474 204.988 213.795 204.988 214.13C204.988 214.464 205.118 214.786 205.351 215.027L205.275 215.544Z" fill="#B2482E"/>
<path d="M65.4952 217.423C71.7618 217.443 78.0001 218.258 84.0587 219.847C85.7911 220.298 87.5045 220.787 89.1895 221.398C89.3488 221.439 89.5179 221.417 89.661 221.336C89.804 221.255 89.9099 221.123 89.9563 220.966C89.9922 220.809 89.9674 220.645 89.8867 220.505C89.806 220.366 89.6754 220.262 89.5208 220.214C83.487 218.181 77.2174 216.918 70.8626 216.455C69.0735 216.323 67.2843 216.248 65.4952 216.248C65.332 216.248 65.1755 216.313 65.0601 216.427C64.9447 216.542 64.8799 216.697 64.8799 216.859C64.8799 217.021 64.9447 217.176 65.0601 217.291C65.1755 217.405 65.332 217.47 65.4952 217.47V217.423Z" fill="#E57B61"/>
<path d="M66.6789 220.242C72.2266 220.256 77.7683 220.604 83.2734 221.285C84.807 221.473 86.3405 221.689 87.8646 221.934C87.943 221.955 88.0248 221.961 88.1055 221.951C88.1861 221.942 88.2641 221.916 88.3349 221.877C88.4056 221.837 88.4678 221.784 88.5179 221.72C88.568 221.657 88.6049 221.584 88.6267 221.506C88.6484 221.428 88.6545 221.347 88.6447 221.267C88.6348 221.187 88.6091 221.109 88.5691 221.039C88.5291 220.969 88.4756 220.907 88.4116 220.858C88.3475 220.808 88.2743 220.771 88.196 220.75C82.6457 219.871 77.0473 219.325 71.431 219.114C69.8501 219.058 68.2598 219.02 66.6978 219.02C66.5346 219.02 66.3781 219.085 66.2627 219.199C66.1473 219.314 66.0825 219.469 66.0825 219.631C66.0825 219.793 66.1473 219.949 66.2627 220.063C66.3781 220.178 66.5346 220.242 66.6978 220.242H66.6789Z" fill="#E57B61"/>
<path d="M108.558 191.908L105.718 204.003L102.878 216.098L100.038 228.127C99.0916 232.14 98.145 236.153 97.1984 240.175C96.1568 244.091 95.6287 248.125 95.627 252.176C95.627 252.674 95.627 253.172 95.7216 253.67C95.7264 253.83 95.7927 253.983 95.9071 254.097C96.0215 254.21 96.1752 254.276 96.3369 254.281C96.5001 254.281 96.6566 254.216 96.772 254.102C96.8874 253.987 96.9523 253.832 96.9523 253.67C96.7219 249.675 97.1082 245.67 98.0977 241.791C98.978 237.788 99.991 233.812 100.938 229.828L103.777 217.799L106.617 205.76L109.457 193.731L109.808 192.237C109.987 191.466 108.804 191.137 108.624 191.908H108.558Z" fill="#E57B61"/>
<path d="M137.118 227.413C132.288 229.794 127.736 232.693 123.543 236.059C122.363 237.005 121.211 237.989 120.088 239.01C119.972 239.126 119.907 239.283 119.907 239.447C119.907 239.611 119.972 239.768 120.088 239.884C120.207 239.992 120.362 240.052 120.524 240.052C120.685 240.052 120.84 239.992 120.959 239.884C124.877 236.322 129.179 233.198 133.786 230.571C135.086 229.831 136.402 229.133 137.733 228.475C137.875 228.394 137.979 228.26 138.022 228.104C138.064 227.947 138.042 227.779 137.961 227.639C137.879 227.498 137.744 227.395 137.586 227.353C137.428 227.31 137.26 227.332 137.118 227.413Z" fill="#E57B61"/>
<path d="M136.853 227.761C133.219 230.584 129.851 233.729 126.79 237.158C125.938 238.117 125.105 239.094 124.291 240.09C124.181 240.21 124.121 240.366 124.121 240.527C124.121 240.689 124.181 240.845 124.291 240.964C124.411 241.075 124.568 241.137 124.731 241.137C124.895 241.137 125.052 241.075 125.172 240.964C128.053 237.385 131.257 234.073 134.742 231.069C135.689 230.232 136.711 229.415 137.733 228.625C137.845 228.508 137.907 228.354 137.907 228.193C137.907 228.032 137.845 227.877 137.733 227.761C137.614 227.65 137.457 227.588 137.293 227.588C137.13 227.588 136.972 227.65 136.853 227.761Z" fill="#E57B61"/>
<path d="M170.97 219.791C172.314 223.062 173.548 226.376 174.671 229.734C175.794 233.092 176.804 236.497 177.7 239.95C178.211 241.829 178.647 243.821 179.101 245.767C179.123 245.845 179.16 245.917 179.21 245.981C179.26 246.044 179.322 246.098 179.393 246.137C179.464 246.177 179.542 246.202 179.622 246.212C179.703 246.222 179.785 246.216 179.863 246.194C179.942 246.173 180.015 246.136 180.079 246.086C180.143 246.037 180.196 245.975 180.236 245.905C180.276 245.834 180.302 245.757 180.312 245.677C180.322 245.597 180.316 245.516 180.294 245.438C179.524 241.992 178.647 238.568 177.662 235.166C176.678 231.764 175.567 228.39 174.33 225.045C173.636 223.165 172.91 221.305 172.153 219.463C172.105 219.31 171.999 219.181 171.859 219.102C171.718 219.024 171.552 219.001 171.396 219.04C171.317 219.06 171.244 219.096 171.18 219.145C171.116 219.195 171.062 219.256 171.023 219.326C170.983 219.396 170.958 219.474 170.949 219.554C170.94 219.633 170.947 219.714 170.97 219.791Z" fill="#E57B61"/>
<path d="M109.666 146.131C103.803 146.539 98.1377 148.407 93.1943 151.563C93.0574 151.649 92.9586 151.783 92.9181 151.939C92.8777 152.094 92.8985 152.259 92.9765 152.4C93.0168 152.47 93.0705 152.531 93.1347 152.58C93.1989 152.629 93.2723 152.665 93.3506 152.686C93.4288 152.707 93.5105 152.713 93.5909 152.702C93.6713 152.692 93.7489 152.666 93.819 152.625C97.5246 150.256 101.659 148.624 105.993 147.823C107.207 147.596 108.433 147.439 109.666 147.353C109.83 147.353 109.987 147.289 110.104 147.175C110.221 147.061 110.288 146.905 110.291 146.742C110.288 146.58 110.221 146.424 110.104 146.31C109.987 146.195 109.83 146.131 109.666 146.131Z" fill="#853622"/>
<path d="M9.06638 130.672C7.59757 130.166 6.2662 129.331 5.17596 128.23C4.08571 127.13 3.26601 125.795 2.78071 124.329C1.64442 121.118 1.71164 117.608 2.97004 114.442C4.44735 110.863 6.64409 107.621 9.4261 104.913C12.0104 102.235 15.1059 99.7065 16.2135 96.0414C17.4346 92.0849 16.0242 87.8748 14.1403 84.3789C12.1619 80.7043 9.5113 77.3305 8.30907 73.2895C7.15417 69.4082 7.13524 65.2357 7.19204 61.2134C7.21873 57.5855 7.53527 53.9654 8.13867 50.3872C9.35984 43.5081 11.9252 36.6759 16.6584 31.4131C17.2548 30.7647 17.8701 30.1444 18.5517 29.5336C19.2333 28.9227 18.2582 28.1334 17.6808 28.6691C12.3228 33.6123 9.16104 40.3505 7.51389 47.3518C6.70854 50.9494 6.21762 54.6093 6.04661 58.2907C5.77014 62.2928 5.88745 66.3121 6.39687 70.2916C6.70157 72.4285 7.31366 74.511 8.21441 76.4753C9.13886 78.3782 10.1789 80.2236 11.3288 82.0012C13.4777 85.5254 15.7118 89.4254 15.3994 93.7013C15.0965 97.7706 11.9631 100.59 9.25571 103.315C6.35361 106.044 3.98785 109.285 2.27899 112.873C0.75463 116.098 0.35497 119.735 1.14303 123.21C1.86358 126.383 3.82067 129.144 6.58619 130.888C7.25879 131.286 7.97708 131.601 8.72559 131.828C9.4829 132.063 9.81422 130.888 9.05691 130.644L9.06638 130.672Z" fill="#E57B61"/>
<path d="M6.48189 135.193C8.07893 136.208 9.89074 136.843 11.7759 137.049C13.661 137.254 15.5684 137.024 17.3493 136.377C18.3617 136.013 19.3176 135.51 20.1892 134.883C20.2588 134.842 20.3197 134.788 20.3683 134.724C20.4169 134.66 20.4523 134.587 20.4725 134.509C20.4928 134.431 20.4974 134.351 20.4861 134.271C20.4749 134.192 20.4479 134.115 20.4069 134.046C20.3659 133.977 20.3116 133.917 20.247 133.868C20.1825 133.82 20.109 133.785 20.0308 133.765C19.9525 133.745 19.8711 133.74 19.7911 133.751C19.711 133.763 19.634 133.789 19.5644 133.83C18.1572 134.829 16.5346 135.489 14.8255 135.757C13.1164 136.024 11.3681 135.892 9.71939 135.371C8.79012 135.089 7.90692 134.674 7.09721 134.14C6.95661 134.058 6.78886 134.035 6.63086 134.075C6.47286 134.116 6.33755 134.217 6.2547 134.356C6.17516 134.498 6.15439 134.664 6.19684 134.82C6.23929 134.977 6.34158 135.11 6.48189 135.193Z" fill="#E57B61"/>
<path d="M16.2607 130.907C18.4474 130.156 19.4793 128.013 20.2555 126.011C20.9785 124.017 21.8225 122.068 22.783 120.175C24.6763 116.585 27.3837 113.108 31.3028 111.793C33.6504 111.022 36.1495 111.125 38.5824 110.909C39.8388 110.835 41.08 110.598 42.2743 110.204C43.36 109.821 44.3647 109.241 45.2373 108.494C46.7436 107.084 47.9478 105.387 48.7777 103.504C49.7243 101.624 50.51 99.6507 51.6176 97.8651C52.7609 95.9619 54.2862 94.3124 56.0986 93.0191C57.9111 91.7257 59.9722 90.8162 62.1537 90.3469C62.6648 90.2436 63.176 90.159 63.6872 90.1026C63.8496 90.1002 64.0047 90.035 64.1196 89.921C64.2345 89.807 64.3001 89.653 64.3025 89.4917C64.3001 89.3305 64.2345 89.1765 64.1196 89.0624C64.0047 88.9484 63.8496 88.8833 63.6872 88.8808C61.3627 89.1314 59.1126 89.8428 57.0702 90.9729C55.0279 92.1029 53.2348 93.6285 51.7974 95.4593C50.528 97.2147 49.4611 99.1061 48.6167 101.098C48.1813 102.038 47.7364 102.977 47.2441 103.917C46.998 104.378 46.7424 104.857 46.4584 105.261C46.2052 105.666 45.927 106.055 45.6254 106.426C45.0279 107.161 44.3151 107.796 43.5144 108.306C42.5046 108.916 41.3862 109.327 40.2201 109.518C37.7494 109.969 35.2124 109.781 32.7322 110.223C30.5723 110.621 28.5515 111.563 26.863 112.958C25.2338 114.328 23.8454 115.957 22.7546 117.779C21.6084 119.668 20.6297 121.652 19.8295 123.709C19.4509 124.649 19.1101 125.692 18.703 126.594C18.3365 127.548 17.7647 128.41 17.0275 129.122C16.7078 129.4 16.3386 129.617 15.9388 129.761C15.7843 129.809 15.6537 129.913 15.573 130.052C15.4923 130.192 15.4674 130.356 15.5034 130.513C15.5242 130.591 15.5604 130.664 15.6098 130.728C15.6593 130.792 15.721 130.845 15.7914 130.886C15.8618 130.926 15.9395 130.952 16.02 130.962C16.1006 130.972 16.1824 130.966 16.2607 130.945V130.907Z" fill="#E57B61"/>
<path d="M35.6954 102.216C38.5795 101.915 41.374 101.045 43.9148 99.6574C46.4556 98.2695 48.6916 96.3918 50.4913 94.1343C51.6987 92.5925 52.7009 90.9025 53.4732 89.1064C55.0447 85.5353 56.1901 81.5882 59.3235 78.985C61.001 77.7204 62.8411 76.6838 64.795 75.9027C66.7204 75.1147 68.5653 74.1454 70.3044 73.0081C72.0245 71.8803 73.3687 70.2712 74.1667 68.3845C74.5336 67.5054 74.7169 66.5615 74.7056 65.61C74.6942 64.6585 74.4883 63.7193 74.1005 62.8492C73.8974 62.4342 73.643 62.0459 73.3432 61.6933C73.2249 61.5802 73.0672 61.517 72.903 61.517C72.7388 61.517 72.581 61.5802 72.4628 61.6933C72.3537 61.8112 72.2931 61.9654 72.2931 62.1255C72.2931 62.2857 72.3537 62.4399 72.4628 62.5578C72.9548 63.2145 73.2834 63.9775 73.4216 64.7844C73.5598 65.5912 73.5037 66.4191 73.2579 67.2003C72.7298 68.9766 71.629 70.5315 70.1246 71.6266C66.906 74.1264 62.7597 75.0474 59.4276 77.3781C57.7604 78.5466 56.379 80.0722 55.3854 81.842C54.4575 83.5761 53.6448 85.3686 52.9526 87.208C52.2695 88.9622 51.4101 90.6436 50.3872 92.2265C49.36 93.721 48.134 95.0708 46.7426 96.2394C43.9592 98.6025 40.5893 100.183 36.9828 100.816C36.5284 100.901 36.1498 100.948 35.6954 100.995C35.5337 100.999 35.3799 101.065 35.2656 101.179C35.1512 101.292 35.0848 101.445 35.0801 101.605C35.0801 101.686 35.096 101.765 35.1269 101.839C35.1578 101.913 35.2032 101.981 35.2603 102.037C35.3174 102.094 35.3853 102.139 35.4599 102.17C35.5346 102.2 35.6146 102.216 35.6954 102.216Z" fill="#E57B61"/>
<path d="M57.9312 41.1402C57.6661 44.2133 59.2186 46.9761 60.9699 49.3819C61.9165 50.6506 62.8631 51.8629 63.8098 53.141C64.2641 53.7707 64.7564 54.4192 65.1161 55.0958C65.3055 55.4153 65.4948 55.7349 65.6652 56.0356L65.9018 56.5243L66.006 56.7498L66.0722 56.8908V56.9471C66.7191 58.3914 66.9549 59.9841 66.7538 61.5521C66.4319 63.4779 65.6243 65.2916 64.4061 66.8242C61.8881 70.1604 58.0637 72.209 54.6747 74.5491C51.1432 76.9661 47.986 79.882 45.303 83.2045C44.9622 83.6274 44.6309 84.0597 44.2996 84.5014C44.2192 84.6415 44.197 84.8072 44.2376 84.9633C44.2783 85.1195 44.3786 85.2537 44.5173 85.3377C44.6616 85.4148 44.83 85.4344 44.9883 85.3925C45.1466 85.3506 45.2828 85.2503 45.3693 85.1121C47.9056 81.7295 50.9405 78.7452 54.3718 76.2595C57.827 73.7597 61.765 71.7486 64.6049 68.5064C65.9729 67.0074 67.0024 65.2355 67.6247 63.3094C68.167 61.5355 68.19 59.6451 67.691 57.8587C66.8485 54.8514 64.7753 52.3799 62.9578 49.9365C62.0016 48.7326 61.1407 47.4569 60.3829 46.1209C60.0416 45.5242 59.7625 44.8944 59.5499 44.2414C59.4458 43.9049 59.3605 43.5629 59.2943 43.2171C59.2314 42.9073 59.1934 42.5931 59.1807 42.2773C59.1524 41.9176 59.1524 41.5562 59.1807 41.1965C59.162 41.0464 59.0886 40.9082 58.9744 40.808C58.8602 40.7078 58.7131 40.6525 58.5607 40.6525C58.4083 40.6525 58.2611 40.7078 58.1469 40.808C58.0327 40.9082 57.9593 41.0464 57.9406 41.1965L57.9312 41.1402Z" fill="#E57B61"/>
<path d="M35.903 78.9192C39.9641 76.2972 44.1009 73.6188 47.4047 70.0571C50.6849 66.6966 52.7062 62.3218 53.1318 57.6615C53.2739 55.328 52.8179 52.9969 51.8065 50.8858C50.7652 48.7055 49.3263 46.7508 48.3513 44.5329C46.6775 40.5945 45.9983 36.3096 46.3729 32.0512C46.7474 27.7928 48.1642 23.6897 50.5002 20.0988C50.7936 19.6571 51.106 19.2154 51.4468 18.7925C51.4891 18.7237 51.5171 18.6472 51.529 18.5675C51.541 18.4878 51.5366 18.4065 51.5163 18.3285C51.496 18.2505 51.4601 18.1773 51.4108 18.1134C51.3614 18.0494 51.2997 17.9959 51.2291 17.9561C51.0879 17.8763 50.921 17.8543 50.7637 17.8946C50.6064 17.935 50.4712 18.0345 50.3866 18.1722C47.7819 21.6392 46.0782 25.6901 45.4262 29.9664C44.7198 34.2567 45.0441 38.6521 46.3728 42.7943C47.1184 44.9388 48.1027 46.9939 49.3074 48.9216C49.977 49.9692 50.5596 51.0692 51.0492 52.2108C51.457 53.2222 51.7214 54.285 51.8349 55.3685C52.2893 59.8042 50.5002 64.2869 47.7455 67.717C44.7352 71.4761 40.7404 74.2954 36.7361 76.8704C36.2438 77.1899 35.7894 77.5095 35.2593 77.8102C34.5967 78.2425 35.2593 79.3044 35.8841 78.8721L35.903 78.9192Z" fill="#E57B61"/>
<path d="M42.2273 10.8889C38.8313 13.4828 36.3511 17.0788 35.1434 21.1602C33.9358 25.2416 34.0628 29.5981 35.5062 33.6033C36.4706 35.7982 37.5871 37.924 38.8478 39.9655C40.103 41.955 40.8744 44.2073 41.1008 46.544C41.088 48.8768 40.465 51.1662 39.2928 53.1881C38.1473 55.3778 36.7274 57.4171 35.5062 59.5692C32.8945 64.2204 31.4617 69.4324 31.3315 74.7559C31.3315 75.4231 31.3315 76.081 31.3315 76.7389C31.3315 77.3967 32.5906 77.5283 32.5622 76.7389C32.3559 71.5035 33.4687 66.2997 35.7997 61.599C36.9072 59.3906 38.3083 57.3513 39.5862 55.218C40.8648 53.2052 41.757 50.9748 42.2179 48.6396C42.5229 46.2763 42.1385 43.8758 41.1103 41.7229C40.1637 39.5332 38.8005 37.5408 37.6929 35.417C36.6799 33.5468 36.0069 31.514 35.705 29.4118C35.4333 27.4138 35.4941 25.3852 35.8849 23.4067C36.6211 19.3787 38.662 15.6995 41.6972 12.9282C42.0759 12.5899 42.464 12.2798 42.8616 11.9885C43.0001 11.9044 43.1008 11.7708 43.1431 11.6152C43.1854 11.4596 43.1659 11.2939 43.0888 11.1521C43.004 11.0121 42.8677 10.9103 42.7087 10.8682C42.5498 10.8262 42.3805 10.8471 42.2368 10.9265L42.2273 10.8889Z" fill="#E57B61"/>
<path d="M31.9177 88.2609C30.3556 88.4476 28.8635 89.0124 27.5727 89.9055C26.2695 90.8341 25.1307 91.971 24.2026 93.2698C22.2242 95.967 21.1355 99.1059 20.0469 102.217C18.9583 105.327 17.7466 108.673 15.4273 111.182C14.1693 112.433 12.8386 113.61 11.442 114.706C10.0754 115.806 8.91807 117.139 8.02461 118.644C7.21814 120.113 6.72618 121.733 6.57958 123.4C6.43297 125.067 6.63488 126.747 7.17265 128.333C7.32411 128.737 7.48503 129.141 7.67436 129.526C7.7146 129.596 7.76836 129.658 7.83254 129.707C7.89673 129.756 7.97008 129.792 8.04837 129.813C8.12667 129.834 8.20837 129.839 8.28877 129.829C8.36917 129.818 8.44669 129.792 8.51687 129.752C8.65717 129.669 8.75947 129.536 8.80192 129.38C8.84436 129.223 8.8236 129.057 8.74406 128.915C8.10304 127.515 7.77139 125.994 7.77139 124.456C7.77139 122.918 8.10304 121.397 8.74406 119.997C9.45195 118.522 10.4572 117.208 11.6976 116.134C12.9661 114.979 14.3576 113.964 15.5977 112.78C18.1252 110.364 19.5641 107.226 20.7379 104.002C21.8455 100.967 22.7354 97.8841 24.4582 95.1212C25.2294 93.8479 26.1865 92.6951 27.2981 91.7004C28.343 90.7513 29.5979 90.0592 30.9616 89.6798C31.288 89.5915 31.6201 89.5256 31.9556 89.4825C32.1173 89.4778 32.271 89.412 32.3854 89.2984C32.4998 89.1849 32.5662 89.0322 32.5709 88.8717C32.5709 88.5709 32.2869 88.2139 31.9556 88.2609H31.9177Z" fill="#E57B61"/>
<path d="M34.2752 92.3862C32.4877 93.7187 30.9307 95.3312 29.665 97.1603C28.3978 98.9595 27.4531 100.962 26.8725 103.081C26.5979 104.115 26.9577 105.628 28.3019 105.43C28.459 105.386 28.5926 105.283 28.674 105.143C28.7554 105.002 28.7781 104.835 28.7373 104.678C28.691 104.524 28.5865 104.393 28.4456 104.312C28.3047 104.232 28.138 104.208 27.98 104.246C28.0209 104.241 28.0622 104.241 28.1031 104.246C28.1031 104.302 27.9706 104.246 28.1031 104.246C28.1883 104.246 28.1031 104.19 28.1031 104.246C28.1031 104.321 28.0179 104.246 28.1031 104.246C28.1031 104.171 28.0463 104.133 28.1031 104.246V104.143V104.03C28.1031 103.88 28.1031 104.124 28.1031 103.955V103.71V103.56C28.1031 103.635 28.1031 103.457 28.1031 103.56C28.1031 103.485 28.2262 103.1 28.3019 102.874C28.5774 101.98 28.9256 101.109 29.3432 100.271C30.177 98.5535 31.2651 96.9696 32.5712 95.572C33.3084 94.7897 34.113 94.0729 34.9757 93.4294C35.1126 93.3439 35.2113 93.2095 35.2518 93.0541C35.2923 92.8986 35.2714 92.7337 35.1934 92.593C35.1104 92.4537 34.9758 92.3521 34.8184 92.31C34.661 92.2679 34.4932 92.2885 34.3509 92.3675L34.2752 92.3862Z" fill="#E57B61"/>
<path d="M21.145 73.3085C20.92 74.8707 21.1219 76.4642 21.7298 77.9223C22.3376 79.3805 23.329 80.6498 24.6003 81.5972C24.6705 81.638 24.7481 81.6645 24.8287 81.6755C24.9093 81.6864 24.9913 81.6815 25.0699 81.661C25.1486 81.6405 25.2225 81.6049 25.2872 81.556C25.352 81.5072 25.4065 81.4461 25.4475 81.3764C25.4885 81.3067 25.5153 81.2296 25.5263 81.1496C25.5374 81.0696 25.5324 80.9882 25.5117 80.9101C25.4911 80.832 25.4551 80.7587 25.4059 80.6944C25.3567 80.6301 25.2953 80.576 25.225 80.5353C24.1783 79.736 23.3603 78.679 22.8522 77.469C22.3441 76.259 22.1635 74.9381 22.3283 73.6374C22.367 73.4818 22.3445 73.3174 22.2654 73.1777C22.1862 73.038 22.0564 72.9335 21.9023 72.8855C21.7454 72.8421 21.5776 72.8623 21.4356 72.9416C21.2937 73.0209 21.1892 73.1528 21.145 73.3085Z" fill="#E57B61"/>
<path d="M27.2418 55.2369C26.1779 56.4075 25.4933 57.8688 25.2772 59.4308C25.0611 60.9929 25.3235 62.5834 26.0301 63.9955C26.0704 64.0654 26.1241 64.1267 26.1883 64.1759C26.2525 64.2251 26.3258 64.2612 26.4041 64.2822C26.4824 64.3031 26.5641 64.3085 26.6445 64.298C26.7249 64.2875 26.8024 64.2614 26.8726 64.221C27.0111 64.137 27.1119 64.0034 27.1541 63.8479C27.1964 63.6923 27.177 63.5264 27.0998 63.3846C26.5191 62.2085 26.3052 60.8869 26.4857 59.5894C26.6661 58.2918 27.2327 57.0773 28.1127 56.1014C28.2282 55.9867 28.2931 55.8313 28.2931 55.6691C28.2931 55.507 28.2282 55.3515 28.1127 55.2369C27.9972 55.1222 27.8406 55.0578 27.6773 55.0578C27.5139 55.0578 27.3573 55.1222 27.2418 55.2369Z" fill="#E57B61"/>
<path d="M6.52892 112.488C4.95165 114.202 3.83439 116.282 3.28016 118.537C2.72594 120.792 2.75259 123.149 3.35768 125.391C3.69253 126.642 4.21935 127.833 4.91964 128.925C4.96066 128.994 5.01512 129.055 5.0799 129.104C5.14468 129.153 5.21851 129.189 5.29719 129.209C5.37586 129.23 5.45783 129.235 5.53842 129.224C5.61901 129.213 5.69664 129.186 5.76688 129.145C5.83712 129.105 5.89859 129.051 5.94778 128.986C5.99697 128.922 6.03292 128.849 6.05358 128.771C6.07423 128.693 6.07919 128.611 6.06817 128.531C6.05715 128.451 6.03037 128.374 5.98934 128.304C4.87693 126.512 4.23741 124.471 4.12987 122.368C4.02232 120.266 4.45022 118.17 5.37403 116.275C5.88973 115.201 6.57346 114.215 7.39983 113.353C7.94888 112.789 7.07797 111.915 6.52892 112.488Z" fill="#E57B61"/>
<path d="M64.3874 120.457C67.8213 121.102 71.3372 121.194 74.8005 120.73C78.3127 120.26 81.7909 119.566 85.2135 118.653C88.6403 117.788 92.0766 116.905 95.4845 115.956C98.8924 115.006 102.206 113.973 105.519 112.826C108.832 111.68 112.098 110.411 115.335 109.067L116.519 108.56C116.588 108.519 116.649 108.465 116.698 108.401C116.746 108.337 116.782 108.264 116.802 108.186C116.822 108.109 116.827 108.028 116.816 107.948C116.804 107.869 116.778 107.792 116.736 107.723C116.652 107.586 116.517 107.486 116.361 107.444C116.204 107.402 116.037 107.421 115.894 107.498C112.739 108.851 109.561 110.104 106.361 111.257C103.162 112.41 99.8453 113.459 96.4122 114.405C93.0327 115.345 89.6248 116.238 86.2264 117.112C82.8687 118.027 79.4658 118.771 76.0311 119.339C72.6973 119.89 69.2993 119.944 65.9494 119.499C65.5329 119.442 65.1069 119.367 64.6904 119.282C64.5324 119.244 64.3655 119.266 64.2232 119.344C64.0809 119.423 63.9739 119.552 63.9236 119.705C63.8828 119.862 63.9056 120.029 63.987 120.169C64.0684 120.31 64.2019 120.413 64.359 120.457H64.3874Z" fill="#853622"/>
<path d="M117.105 79.1818L116.159 90.2336L115.212 101.332L114.691 107.563C114.691 107.725 114.756 107.88 114.872 107.995C114.987 108.109 115.144 108.174 115.307 108.174C115.47 108.174 115.626 108.109 115.742 107.995C115.857 107.88 115.922 107.725 115.922 107.563L116.869 96.5206L117.815 85.422L118.336 79.1818C118.334 79.0206 118.268 78.8666 118.153 78.7526C118.038 78.6385 117.883 78.5734 117.721 78.571C117.558 78.5734 117.403 78.6385 117.288 78.7526C117.173 78.8666 117.108 79.0206 117.105 79.1818Z" fill="#853622"/>
<path d="M81.5975 127.589C80.9648 129.045 80.5441 130.583 80.348 132.157C80.3006 132.486 80.6604 132.768 80.9633 132.768C81.125 132.763 81.2787 132.697 81.3931 132.583C81.5075 132.47 81.5738 132.317 81.5786 132.157C81.7539 130.798 82.1171 129.47 82.6578 128.21C82.7358 128.069 82.7567 127.904 82.7162 127.749C82.6757 127.593 82.5769 127.459 82.44 127.373C82.3708 127.331 82.2937 127.303 82.2134 127.292C82.1331 127.28 82.0513 127.284 81.9727 127.304C81.8941 127.324 81.8204 127.36 81.756 127.409C81.6915 127.458 81.6376 127.519 81.5975 127.589Z" fill="#853622"/>
<path d="M95.8826 129.15L94.0935 134.939C93.8663 135.691 95.0401 136.01 95.2862 135.259L97.0754 129.47C97.312 128.718 96.1287 128.398 95.8826 129.15Z" fill="#853622"/>
<path d="M112.117 132.505L110.867 140.409C110.824 140.566 110.846 140.733 110.928 140.874C111.01 141.015 111.144 141.118 111.302 141.16C111.461 141.203 111.629 141.181 111.771 141.1C111.913 141.019 112.017 140.885 112.06 140.728L113.309 132.825C113.352 132.668 113.33 132.5 113.248 132.359C113.167 132.218 113.032 132.115 112.874 132.073C112.716 132.031 112.547 132.052 112.405 132.133C112.263 132.214 112.159 132.348 112.117 132.505Z" fill="#853622"/>
<path d="M130.065 137.542C130.018 139.751 129.43 141.915 128.352 143.848C127.964 144.534 129.034 145.154 129.412 144.459C130.602 142.341 131.252 139.967 131.306 137.542C131.287 137.392 131.213 137.254 131.099 137.154C130.985 137.054 130.838 136.998 130.686 136.998C130.533 136.998 130.386 137.054 130.272 137.154C130.158 137.254 130.084 137.392 130.065 137.542Z" fill="#853622"/>
<path d="M86.3971 161.91C89.6662 163.245 92.8879 164.67 96.0623 166.186C97.009 166.628 97.8893 167.126 98.7981 167.53C98.9409 167.607 99.1079 167.626 99.2646 167.584C99.4214 167.542 99.5559 167.442 99.6406 167.305C99.6812 167.235 99.7076 167.158 99.7182 167.078C99.7287 166.999 99.7233 166.917 99.7022 166.84C99.6811 166.762 99.6447 166.689 99.5951 166.625C99.5456 166.562 99.4838 166.508 99.4134 166.468C96.2075 164.871 92.9479 163.364 89.6346 161.948C88.688 161.535 87.694 161.121 86.7285 160.726C86.6502 160.705 86.5683 160.699 86.4876 160.708C86.407 160.718 86.329 160.744 86.2583 160.784C86.1875 160.823 86.1253 160.876 86.0752 160.94C86.0252 161.003 85.9882 161.076 85.9664 161.154C85.9447 161.232 85.9386 161.313 85.9484 161.393C85.9583 161.473 85.984 161.55 86.024 161.621C86.064 161.691 86.1175 161.753 86.1815 161.802C86.2456 161.852 86.3188 161.889 86.3971 161.91Z" fill="#853622"/>
<path d="M214.629 210.92C217.849 220.74 219.621 230.97 219.892 241.294C219.892 242.731 219.949 244.179 219.892 245.616C219.926 247.023 219.747 248.426 219.362 249.78C219.318 249.937 219.338 250.105 219.418 250.247C219.497 250.389 219.63 250.495 219.788 250.541C219.946 250.579 220.113 250.555 220.253 250.475C220.394 250.394 220.499 250.263 220.545 250.109C220.918 248.851 221.11 247.548 221.113 246.237C221.113 244.93 221.113 243.624 221.113 242.318C221.113 239.724 220.933 237.13 220.697 234.546C220.228 229.334 219.386 224.161 218.179 219.068C217.497 216.249 216.692 213.429 215.784 210.61C215.735 210.457 215.63 210.327 215.49 210.247C215.35 210.167 215.184 210.142 215.026 210.178C214.868 210.224 214.735 210.329 214.654 210.471C214.572 210.613 214.55 210.781 214.591 210.939L214.629 210.92Z" fill="#853622"/>
<path d="M158.53 255.174C157.348 259.215 155.812 263.145 153.939 266.921C152.047 270.687 149.83 274.284 147.313 277.672C145.909 279.564 144.408 281.383 142.816 283.122C142.702 283.24 142.639 283.396 142.639 283.559C142.639 283.722 142.702 283.879 142.816 283.996C142.933 284.109 143.089 284.172 143.252 284.172C143.414 284.172 143.571 284.109 143.687 283.996C149.489 277.627 154.108 270.286 157.328 262.316C158.231 260.079 159.016 257.805 159.685 255.493C159.713 255.342 159.683 255.187 159.601 255.057C159.519 254.928 159.391 254.833 159.242 254.793C159.093 254.753 158.934 254.77 158.797 254.84C158.66 254.911 158.555 255.03 158.502 255.174H158.53Z" fill="#853622"/>
<path d="M146.234 139.065C145.552 141.373 145.011 143.721 144.615 146.094C144.579 146.251 144.604 146.415 144.685 146.555C144.766 146.694 144.896 146.798 145.051 146.846C145.209 146.887 145.377 146.864 145.518 146.783C145.66 146.702 145.764 146.57 145.808 146.414C146.206 144.041 146.747 141.693 147.427 139.384C147.469 139.227 147.447 139.06 147.366 138.919C147.284 138.778 147.149 138.675 146.991 138.632C146.833 138.59 146.664 138.612 146.522 138.693C146.38 138.774 146.277 138.908 146.234 139.065Z" fill="#853622"/>
<path d="M154.81 141.762C154.871 143.855 154.635 145.946 154.109 147.974C154.075 148.126 154.101 148.286 154.182 148.42C154.263 148.554 154.393 148.652 154.544 148.694C154.696 148.736 154.858 148.719 154.997 148.646C155.136 148.573 155.242 148.45 155.293 148.302C155.856 146.156 156.108 143.941 156.041 141.724C156.041 140.935 154.781 140.925 154.81 141.724V141.762Z" fill="#E57B61"/>
<path d="M138.954 116.623L138.055 127.525L137.809 130.626C137.808 130.758 137.851 130.887 137.932 130.992C138.012 131.097 138.125 131.173 138.254 131.209C144.394 132.121 150.454 133.5 156.382 135.334C158.041 135.848 159.682 136.396 161.304 136.979C161.382 137 161.464 137.006 161.545 136.996C161.625 136.985 161.703 136.959 161.773 136.919C161.844 136.879 161.906 136.825 161.955 136.761C162.004 136.697 162.041 136.624 162.061 136.546C162.103 136.391 162.081 136.225 162.002 136.085C161.922 135.945 161.791 135.841 161.635 135.795C155.792 133.714 149.799 132.078 143.706 130.898C142.002 130.579 140.295 130.291 138.585 130.034L139.039 130.626L139.957 119.687L140.213 116.595C140.211 116.434 140.145 116.28 140.03 116.166C139.915 116.052 139.76 115.987 139.598 115.984C139.435 115.987 139.28 116.052 139.165 116.166C139.05 116.28 138.985 116.434 138.982 116.595L138.954 116.623Z" fill="#E57B61"/>
<path d="M173.147 119.085C176.933 119.712 180.742 120.363 184.573 121.04C185.661 121.228 186.75 121.416 187.848 121.594C188.005 121.633 188.17 121.61 188.311 121.532C188.452 121.453 188.557 121.324 188.605 121.171C188.646 121.015 188.623 120.848 188.542 120.708C188.461 120.567 188.327 120.464 188.17 120.42C184.383 119.793 180.575 119.142 176.744 118.465L173.478 117.901C173.32 117.863 173.153 117.887 173.013 117.967C172.872 118.048 172.767 118.179 172.721 118.333C172.677 118.489 172.697 118.656 172.777 118.797C172.857 118.938 172.99 119.041 173.147 119.085Z" fill="#E57B61"/>
<path d="M173.563 124.179C176.946 124.805 180.332 125.432 183.721 126.058C184.667 126.246 185.614 126.425 186.636 126.613C186.715 126.634 186.796 126.639 186.877 126.629C186.957 126.618 187.035 126.592 187.105 126.552C187.175 126.512 187.237 126.459 187.287 126.395C187.336 126.331 187.372 126.258 187.393 126.18C187.415 126.103 187.42 126.021 187.41 125.942C187.399 125.862 187.373 125.785 187.333 125.715C187.292 125.645 187.238 125.584 187.174 125.535C187.11 125.486 187.036 125.449 186.958 125.428C183.575 124.802 180.193 124.16 176.81 123.502C175.863 123.314 174.86 123.135 173.894 122.947C173.735 122.909 173.567 122.933 173.425 123.013C173.282 123.093 173.176 123.224 173.128 123.38C173.087 123.537 173.11 123.703 173.191 123.844C173.272 123.984 173.406 124.088 173.563 124.132V124.179Z" fill="#E57B61"/>
<path d="M172.077 128.389C176.33 129.015 180.578 129.68 184.819 130.381C184.977 130.419 185.143 130.396 185.284 130.315C185.425 130.235 185.53 130.104 185.576 129.949C185.62 129.793 185.599 129.627 185.52 129.486C185.44 129.345 185.307 129.241 185.15 129.197C180.896 128.533 176.649 127.869 172.408 127.205C172.25 127.167 172.084 127.19 171.943 127.271C171.802 127.351 171.697 127.482 171.651 127.637C171.607 127.793 171.628 127.959 171.707 128.1C171.787 128.241 171.92 128.345 172.077 128.389Z" fill="#E57B61"/>
<path d="M172.739 115.814C172.762 119.012 172.319 122.196 171.423 125.268C171.168 126.208 170.865 127.035 170.534 127.9C170.491 128.057 170.513 128.224 170.594 128.365C170.676 128.506 170.811 128.609 170.969 128.652C171.127 128.694 171.296 128.672 171.438 128.591C171.58 128.51 171.684 128.376 171.726 128.219C172.898 125.142 173.622 121.914 173.875 118.634C173.951 117.694 173.979 116.754 173.97 115.814C173.97 115.652 173.905 115.497 173.79 115.382C173.674 115.268 173.518 115.203 173.355 115.203C173.191 115.203 173.035 115.268 172.919 115.382C172.804 115.497 172.739 115.652 172.739 115.814Z" fill="#E57B61"/>
<path d="M156.912 112.535V112.769C156.912 112.863 156.912 112.676 156.912 112.769V112.901L156.808 113.343L156.656 113.794C156.656 113.719 156.656 113.85 156.656 113.86L156.552 114.076L156.325 114.461L156.183 114.658V114.715C155.977 114.958 155.749 115.181 155.501 115.382C155.444 115.439 155.399 115.506 155.368 115.58C155.337 115.655 155.321 115.734 155.321 115.814C155.321 115.895 155.337 115.974 155.368 116.048C155.399 116.123 155.444 116.19 155.501 116.247C155.619 116.357 155.775 116.418 155.937 116.418C156.099 116.418 156.255 116.357 156.372 116.247C156.935 115.782 157.398 115.21 157.733 114.564C158.068 113.918 158.269 113.212 158.322 112.488C158.304 112.337 158.23 112.199 158.116 112.099C158.002 111.999 157.855 111.944 157.702 111.944C157.55 111.944 157.403 111.999 157.289 112.099C157.174 112.199 157.101 112.337 157.082 112.488L156.912 112.535Z" fill="#E57B61"/>
<path d="M197.513 222.122C197.834 222.643 198.233 223.112 198.697 223.513C198.943 223.734 199.209 223.932 199.492 224.105C199.807 224.244 200.16 224.277 200.495 224.199C201.752 224.056 202.928 223.512 203.846 222.648C204.414 222.103 203.544 221.239 202.966 221.784C202.134 222.575 201.023 223.013 199.871 223.005L200.183 223.09C199.535 222.688 198.986 222.149 198.574 221.511C198.157 220.844 197.087 221.455 197.513 222.122Z" fill="#E57B61"/>
</svg>
