<svg width="328" height="251" viewBox="0 0 328 251" fill="none" xmlns="http://www.w3.org/2000/svg">
<path d="M232.709 37.7716L251.881 25.8721C252.232 25.6102 252.648 25.4399 253.089 25.3779C253.658 25.41 254.198 25.6252 254.622 25.9884C257.383 27.9251 259.681 30.3989 261.365 33.2463C261.588 33.55 261.705 33.9126 261.7 34.2831C261.589 34.6936 261.335 35.0558 260.979 35.3103C253.567 41.8466 245.658 47.8514 237.319 53.2758C234.423 49.5759 231.797 45.6907 229.459 41.6476L232.709 37.7716Z" fill="#FCEFEB"/>
<path d="M259.73 36.231C260.033 35.0549 259.844 33.8125 259.203 32.7671C258.562 31.7217 257.52 30.9553 256.298 30.6301C254.267 30.165 251.576 30.9014 250.256 29.3123C248.936 27.7231 250.093 25.7366 250.672 23.9536C251.309 21.4736 251.419 18.8973 250.997 16.376C250.581 13.8559 250.581 11.2892 250.997 8.76922C251.285 7.46539 251.896 6.24642 252.78 5.21455C253.663 4.18269 254.793 3.36802 256.075 2.83887C258.867 8.06184 270.19 24.6804 271.418 28.5564L259.73 36.231Z" fill="#853622"/>
<path d="M273.611 36.4639L277.673 32.7332L258.176 0L254.033 3.59503L273.611 36.4639L253.871 3.36247L273.611 36.4639Z" fill="#2C120B"/>
<path d="M248.915 27.8596C253.271 28.1503 258.217 28.7607 260.735 32.1717C261.304 32.895 261.655 33.7527 261.751 34.6523C261.852 36.4838 260.552 38.0826 259.314 39.4974C255.343 35.0399 248.874 32.7918 245.869 27.6948L248.915 27.8596Z" fill="#EB9C88"/>
<path d="M250.286 17.5875C250.93 18.0975 251.694 18.4519 252.513 18.6205C253.331 18.7891 254.18 18.7671 254.988 18.5562C255.091 18.5437 255.196 18.568 255.283 18.6244C255.369 18.6808 255.43 18.7655 255.455 18.8623C255.48 18.9591 255.467 19.0614 255.418 19.1496C255.37 19.2378 255.289 19.3059 255.191 19.3409C254.24 19.5791 253.243 19.5943 252.284 19.3852C251.326 19.176 250.435 18.7486 249.687 18.1396C249.608 18.0635 249.564 17.9608 249.564 17.8539C249.564 17.7469 249.608 17.6442 249.687 17.5681C249.768 17.4952 249.875 17.4546 249.986 17.4546C250.098 17.4546 250.205 17.4952 250.286 17.5681V17.5875Z" fill="#E57B61"/>
<path d="M250.042 20.5337C250.843 21.1294 251.769 21.5544 252.757 21.78C253.745 22.0056 254.772 22.0266 255.769 21.8415C256.308 21.7349 256.511 22.5196 255.983 22.6165C254.843 22.8353 253.667 22.8135 252.537 22.5524C251.407 22.2913 250.351 21.7973 249.443 21.1053C249.396 21.0696 249.357 21.0249 249.329 20.974C249.302 20.923 249.285 20.8671 249.282 20.8098C249.278 20.7525 249.288 20.6951 249.309 20.6415C249.331 20.5879 249.364 20.5392 249.406 20.4986C249.449 20.458 249.5 20.4264 249.556 20.406C249.612 20.3856 249.672 20.3768 249.732 20.3801C249.792 20.3834 249.851 20.3988 249.904 20.4253C249.958 20.4517 250.005 20.4887 250.042 20.5337Z" fill="#E57B61"/>
<path d="M267.062 23.518C266.268 24.3285 265.667 25.2921 265.297 26.3435C264.927 27.395 264.798 28.51 264.919 29.613C264.987 30.2358 265.137 30.8479 265.366 31.4348C265.379 31.4857 265.382 31.5387 265.374 31.5907C265.367 31.6427 265.348 31.6927 265.319 31.7377C265.291 31.7828 265.254 31.822 265.209 31.8532C265.165 31.8844 265.115 31.9068 265.061 31.9193C264.954 31.943 264.841 31.9259 264.746 31.8717C264.651 31.8175 264.582 31.7303 264.553 31.6286C264.127 30.4866 263.961 29.271 264.066 28.0629C264.171 26.8548 264.545 25.682 265.163 24.6226C265.518 24.0126 265.955 23.449 266.463 22.9462C266.838 22.5683 267.478 23.14 267.062 23.518Z" fill="#E57B61"/>
<path d="M256.988 26.464C256.883 27.1397 257.056 27.828 257.47 28.3848C257.885 28.9417 258.509 29.324 259.212 29.4517C259.915 29.5794 260.643 29.4426 261.243 29.0698C261.843 28.6971 262.268 28.1175 262.43 27.4521C262.593 26.7868 262.479 26.0874 262.113 25.5004C261.747 24.9134 261.157 24.4842 260.467 24.3026C259.777 24.1211 259.04 24.2014 258.41 24.5266C257.781 24.8518 257.308 25.3967 257.09 26.0473L256.988 26.464Z" fill="#EB9C88"/>
<path d="M283.472 103.064L306.259 105.002C306.767 104.973 307.265 105.138 307.646 105.459C308.027 105.781 308.259 106.233 308.29 106.718C309.189 109.874 309.386 113.175 308.869 116.408C308.876 116.608 308.837 116.807 308.754 116.991C308.671 117.174 308.546 117.338 308.389 117.471C308.231 117.603 308.045 117.701 307.844 117.757C307.643 117.812 307.431 117.825 307.224 117.793C297.158 118.559 287.046 118.607 276.973 117.939C277.106 113.316 277.56 108.706 278.333 104.14L283.472 103.064Z" fill="#FCEFEB"/>
<path d="M305.721 117.871C306.721 117.122 307.378 116.032 307.554 114.831C307.731 113.629 307.412 112.409 306.665 111.427C305.345 109.828 302.786 108.84 302.786 106.805C302.786 104.925 304.969 103.898 306.584 102.832C308.7 101.244 310.461 99.2669 311.763 97.018C313.066 94.788 314.724 92.7645 316.678 91.0198C318.709 89.4016 322.009 88.5198 324.527 89.3628C323.309 95.1091 321.39 114.925 319.856 118.695L305.721 117.871Z" fill="#853622"/>
<path d="M316.444 126.253L322.06 125.72L328 88.3936L322.415 88.7715L316.444 126.253C318.475 113.656 320.483 101.059 322.466 88.4614L316.444 126.253Z" fill="#2C120B"/>
<path d="M302.634 104.847C305.863 107.657 309.356 111.068 309.113 115.235C309.089 116.139 308.8 117.018 308.28 117.774C307.173 119.276 305.112 119.77 303.202 120.148C302.979 114.285 299.354 108.684 300.298 102.89L302.634 104.847Z" fill="#EB9C88"/>
<path d="M310.382 97.5699C310.553 98.3528 310.919 99.0848 311.449 99.7039C311.98 100.323 312.659 100.811 313.429 101.126C313.48 101.148 313.526 101.179 313.565 101.218C313.604 101.256 313.634 101.302 313.655 101.352C313.675 101.402 313.685 101.455 313.683 101.509C313.682 101.562 313.67 101.615 313.647 101.664C313.624 101.713 313.592 101.757 313.551 101.794C313.511 101.831 313.463 101.86 313.41 101.88C313.358 101.899 313.302 101.908 313.246 101.907C313.19 101.906 313.135 101.894 313.083 101.872C312.18 101.497 311.386 100.918 310.769 100.186C310.152 99.4533 309.73 98.589 309.539 97.6668C309.528 97.5618 309.56 97.4565 309.628 97.3734C309.696 97.2902 309.795 97.2356 309.905 97.2211C310.016 97.2098 310.128 97.2397 310.217 97.3046C310.305 97.3695 310.365 97.4645 310.382 97.5699Z" fill="#E57B61"/>
<path d="M308.28 99.7407C308.521 100.686 308.972 101.57 309.603 102.334C310.233 103.099 311.029 103.724 311.935 104.169C312.413 104.402 312.078 105.138 311.59 104.906C310.553 104.401 309.643 103.685 308.926 102.81C308.209 101.935 307.7 100.92 307.437 99.8376C307.425 99.7311 307.458 99.6246 307.529 99.5411C307.599 99.4577 307.701 99.4041 307.813 99.3919C307.923 99.3808 308.033 99.411 308.12 99.4761C308.207 99.5412 308.264 99.6361 308.28 99.7407Z" fill="#E57B61"/>
<path d="M319.704 112.163C318.555 112.337 317.459 112.743 316.487 113.353C315.515 113.963 314.691 114.763 314.068 115.7C313.714 116.231 313.434 116.805 313.235 117.406C313.218 117.461 313.189 117.513 313.149 117.557C313.109 117.6 313.06 117.636 313.005 117.66C312.949 117.684 312.889 117.697 312.829 117.697C312.768 117.697 312.708 117.685 312.652 117.662C312.597 117.638 312.547 117.603 312.507 117.56C312.467 117.516 312.437 117.465 312.419 117.41C312.401 117.354 312.396 117.296 312.403 117.238C312.411 117.181 312.432 117.125 312.464 117.076C312.876 115.92 313.543 114.862 314.418 113.971C315.294 113.08 316.358 112.378 317.541 111.911C318.216 111.648 318.922 111.466 319.643 111.369C319.753 111.356 319.865 111.385 319.952 111.451C320.04 111.516 320.097 111.612 320.11 111.718C320.124 111.823 320.093 111.929 320.024 112.013C319.956 112.096 319.855 112.15 319.745 112.163H319.704Z" fill="#E57B61"/>
<path d="M309.884 108.529C309.372 109.003 309.072 109.647 309.047 110.327C309.021 111.007 309.272 111.671 309.748 112.178C310.223 112.685 310.886 112.998 311.597 113.049C312.308 113.101 313.012 112.889 313.563 112.456C314.113 112.023 314.467 111.404 314.55 110.728C314.633 110.052 314.439 109.372 314.009 108.83C313.578 108.287 312.944 107.925 312.24 107.818C311.535 107.712 310.815 107.869 310.23 108.258L309.884 108.529Z" fill="#EB9C88"/>
<path d="M194.262 140.759L222.695 110.516C225.914 107.106 229.245 103.598 233.591 101.64C239.126 99.15 245.533 99.4795 251.626 99.8574C266.594 100.826 298.338 102.832 298.836 103.54C299.333 104.247 295.048 121.195 293.129 129.044L248.732 127.726C246.224 127.649 243.563 127.62 241.421 128.85C239.92 129.861 238.654 131.158 237.704 132.658L224.3 150.963C218.034 159.519 211.616 168.231 202.812 174.433C194.008 180.634 182.239 183.958 171.932 180.46L176.867 167.02L194.262 140.759Z" fill="#853622"/>
<path d="M154.72 166.98C159.3 173.56 158.904 181.176 173.324 190.237C174.339 190.886 203.382 181.467 206.347 170.159C211.668 149.868 200.163 122.357 190.973 103.374C216.075 91.1746 258.593 52.0168 258.816 50.9509C259.04 49.885 250.906 33.9544 246.631 27.4136C217.93 44.2988 190.892 63.6322 165.85 85.1764C163.413 87.2694 160.935 89.4691 159.584 92.318C158.234 95.1669 158.132 98.4712 158.112 101.64C158.044 113.953 158.609 126.253 159.808 138.54C160.508 145.769 161.422 153.182 160.244 160.275C160.003 161.71 159.396 163.066 158.477 164.225C157.558 165.384 156.355 166.31 154.974 166.922L154.72 166.98Z" fill="#B2482E"/>
<path d="M189.662 103.064C186.786 100.62 183.282 98.9481 179.508 98.2185C179.01 98.1216 179.122 97.3658 179.629 97.4627C183.524 98.221 187.141 99.9418 190.119 102.453C190.495 102.773 189.998 103.374 189.612 103.044L189.662 103.064Z" fill="#853622"/>
<path d="M189.571 104.537C186.62 102.437 183.09 101.208 179.416 101C178.898 101 179.03 100.225 179.538 100.254C183.364 100.471 187.04 101.755 190.109 103.946C190.525 104.237 190.018 104.828 189.611 104.537H189.571Z" fill="#853622"/>
<path d="M175.283 171.883C176.541 170.382 177.898 168.957 179.345 167.62C180.848 166.199 182.392 164.816 183.976 163.472C184.514 163.027 184.991 162.581 185.601 162.155C185.861 161.911 186.188 161.743 186.545 161.67C187.168 161.626 187.795 161.646 188.414 161.728C189.429 161.806 190.363 161.922 191.348 162.038C193.603 162.3 195.847 162.61 198.091 162.93C198.193 162.951 198.284 163.007 198.345 163.087C198.407 163.167 198.436 163.267 198.426 163.366C198.336 165.257 198.098 167.139 197.715 168.996C197.614 169.548 197.522 170.11 197.38 170.662C197.391 170.723 197.391 170.786 197.38 170.847C197.351 170.908 197.306 170.962 197.248 171.002C196.852 171.186 197.177 171.06 197.248 171.002C197.248 171.002 197.319 170.924 197.248 171.002L197.136 171.118C194.919 173.337 192.584 175.446 190.14 177.436C188.488 178.825 186.668 180.019 184.717 180.992C184.652 181.019 184.58 181.028 184.51 181.018C184.44 181.007 184.375 180.978 184.321 180.934L181.275 178.027L176.461 173.473L175.354 172.416C174.989 172.077 175.487 171.447 175.852 171.825L178.899 174.732L183.732 179.316L184.849 180.372L184.453 180.314C186.124 179.481 187.691 178.47 189.124 177.3C190.658 176.108 192.171 174.839 193.552 173.531C194.567 172.649 195.451 171.748 196.375 170.837C196.464 170.742 196.559 170.651 196.659 170.566L196.72 170.498C196.72 170.498 196.781 170.44 196.801 170.42C197.136 170.246 196.69 170.537 196.629 170.585C196.568 170.633 196.629 170.672 196.629 170.585C196.629 170.498 196.629 170.401 196.679 170.314C196.751 170.013 196.801 169.713 196.862 169.412C197.293 167.407 197.558 165.372 197.654 163.327L197.989 163.763C196.07 163.492 194.151 163.22 192.232 162.988C191.216 162.852 190.201 162.736 189.104 162.629C188.424 162.562 187.611 162.484 187.002 162.484H186.687H186.576C186.494 162.484 186.667 162.484 186.576 162.484C186.484 162.484 186.636 162.484 186.576 162.484H186.504L186.281 162.639C185.794 162.988 185.337 163.366 184.88 163.744C183.356 165.003 181.833 166.321 180.452 167.62C178.808 169.087 177.271 170.661 175.852 172.329C175.588 172.746 174.969 172.271 175.283 171.883Z" fill="#853622"/>
<path d="M186.139 179.723C183.133 176.819 180.282 173.773 177.598 170.595C177.284 170.207 177.923 169.762 178.248 170.139C180.881 173.272 183.681 176.273 186.636 179.132C186.992 179.471 186.494 180.101 186.139 179.723Z" fill="#853622"/>
<path d="M241.909 125.768L238.954 116.95C238.801 116.485 239.543 116.194 239.695 116.669L242.65 125.487C242.802 125.952 242.061 126.233 241.909 125.768Z" fill="#853622"/>
<path d="M241.035 127.396C238.872 124.734 237.105 121.799 235.785 118.675C235.766 118.629 235.756 118.579 235.757 118.529C235.758 118.479 235.769 118.43 235.789 118.384C235.831 118.291 235.91 118.218 236.008 118.181C236.107 118.144 236.217 118.145 236.314 118.185C236.411 118.225 236.487 118.301 236.526 118.394C237.818 121.455 239.551 124.328 241.675 126.931C241.99 127.319 241.35 127.765 241.035 127.377V127.396Z" fill="#853622"/>
<path d="M293.241 105.729C293.358 105.484 293.41 105.215 293.392 104.947C293.374 104.678 293.287 104.417 293.139 104.188L293.85 104.024L289.91 120.875C289.534 122.454 289.169 124.043 288.793 125.623C288.681 126.098 287.899 125.991 288.011 125.516L291.951 108.655C292.327 107.076 292.692 105.487 293.068 103.907C293.08 103.834 293.115 103.765 293.168 103.71C293.221 103.655 293.29 103.616 293.366 103.599C293.442 103.581 293.522 103.585 293.595 103.611C293.669 103.636 293.733 103.682 293.779 103.743C294.012 104.079 294.151 104.466 294.183 104.868C294.215 105.27 294.139 105.673 293.962 106.039C293.915 106.125 293.836 106.19 293.74 106.222C293.644 106.254 293.54 106.249 293.447 106.209C293.355 106.17 293.282 106.098 293.244 106.009C293.205 105.919 293.204 105.819 293.241 105.729Z" fill="#853622"/>
<path d="M243.482 31.0863C247.046 36.1097 250.186 41.3944 252.875 46.8909C253.64 48.4542 254.361 50.024 255.038 51.6003C255.077 51.6941 255.076 51.7988 255.034 51.8915C254.992 51.9842 254.913 52.0572 254.815 52.0945C254.717 52.1317 254.607 52.1302 254.51 52.0902C254.413 52.0502 254.336 51.9751 254.297 51.8813C251.892 46.3171 249.026 40.9447 245.727 35.8151C244.799 34.3745 243.834 32.95 242.832 31.5417C242.548 31.1347 243.188 30.6793 243.482 31.0863Z" fill="#853622"/>
<path d="M172.998 156.592C170.903 156.376 168.785 156.651 166.826 157.392C164.867 158.133 163.127 159.319 161.757 160.846C161.422 161.224 160.802 160.739 161.137 160.371C163.421 157.814 166.644 156.187 170.145 155.826C171.133 155.719 172.131 155.719 173.12 155.826C173.628 155.884 173.506 156.631 172.998 156.582V156.592Z" fill="#853622"/>
<path d="M160.629 174.122C165.524 172.475 169.068 168.473 171.007 163.976C173.424 158.395 173.323 152.155 172.825 146.234C172.307 140.032 171.485 133.85 170.469 127.716C169.454 121.776 167.87 115.807 167.951 109.76C168.063 104.519 169.833 99.4319 173.028 95.1669C176.302 90.9241 180.193 87.1488 184.584 83.9555C194.024 76.8156 204.029 70.3847 214.51 64.7206C224.99 58.9065 235.774 53.6738 246.579 48.4799C247.909 47.8307 249.25 47.1912 250.641 46.5419C251.098 46.319 251.382 47.0264 250.936 47.2493C240.019 52.482 229.113 57.7146 218.44 63.4415C207.828 69.0519 197.647 75.3761 187.976 82.3663C179.253 88.7811 169.84 96.6592 168.855 107.842C168.327 113.849 169.87 119.848 170.947 125.739C172.016 131.883 172.852 138.059 173.455 144.267C174.034 150.197 174.369 156.341 172.551 162.116C171.223 166.696 168.232 170.677 164.112 173.347C163.113 173.97 162.044 174.484 160.924 174.878C160.436 175.043 160.142 174.335 160.629 174.17V174.122Z" fill="#853622"/>
<path d="M289.991 114.654C283.644 116.369 276.983 116.301 270.453 115.894C263.924 115.487 257.252 114.693 250.692 115.032C247.524 115.152 244.384 115.656 241.35 116.534C238.341 117.436 235.512 118.815 232.982 120.613C228.017 124.169 224.361 129.073 220.939 133.947C217.517 138.821 214.084 144.102 209.667 148.414C209.139 148.937 208.591 149.441 208.032 149.926C207.656 150.265 207.179 149.645 207.555 149.315C212.236 145.216 215.679 140.071 219.212 135.051C222.746 130.032 226.128 125.138 230.86 121.272C233.22 119.327 235.891 117.753 238.771 116.611C241.7 115.504 244.775 114.787 247.91 114.479C254.46 113.791 261.111 114.479 267.59 114.935C274.068 115.39 280.862 115.797 287.361 114.489C288.133 114.334 288.915 114.15 289.676 113.946C290.164 113.811 290.468 114.518 289.971 114.654H289.991Z" fill="#853622"/>
<path d="M51.0398 176.816C50.0243 185.295 45.6172 194.539 42.9668 202.688C58.991 211.613 96.8682 211.08 110.933 199.539C107.003 200.508 95.4567 199.898 91.4862 199.171C92.4407 196.855 93.4156 194.432 93.2328 191.952C93.05 189.471 91.3745 186.893 88.8053 186.467C86.2362 186.041 81.0674 184.132 80.9354 183.318C80.5089 180.701 80.0925 178.085 79.666 175.469C79.8387 175.779 69.3387 178.696 67.9779 180.866C62.3827 179.432 51.0398 176.816 51.0398 176.816Z" fill="#FCEFEB"/>
<path d="M239.298 221.284C235.907 220.141 225.082 220.034 221.497 219.995C220.553 220.053 235.825 218.629 239.776 217.922C240.343 217.812 240.853 217.518 241.218 217.088C241.276 217.002 241.31 216.904 241.316 216.802C241.323 216.7 241.301 216.598 241.254 216.506C241.207 216.415 241.136 216.336 241.048 216.278C240.96 216.221 240.857 216.186 240.75 216.177C236.963 215.79 218.715 217.146 221.578 216.051L235.795 212.388C236.892 212.088 238.181 211.487 238.435 210.557C238.456 210.474 238.458 210.388 238.442 210.304C238.425 210.22 238.39 210.14 238.34 210.07C238.289 210 238.223 209.94 238.147 209.896C238.071 209.851 237.986 209.822 237.897 209.811C230.525 208.919 222.909 211.642 215.76 209.811C215.648 209.785 215.546 209.729 215.467 209.65C215.387 209.571 215.332 209.472 215.309 209.364C215.285 209.257 215.294 209.145 215.335 209.043C215.375 208.94 215.445 208.85 215.536 208.784C217.13 207.689 224.442 205.47 225.691 204.006C225.767 203.919 225.816 203.812 225.83 203.699C225.844 203.585 225.824 203.471 225.771 203.368C225.719 203.266 225.636 203.18 225.533 203.121C225.431 203.063 225.313 203.033 225.193 203.037C221.984 203.037 212.896 204.006 209.707 204.258C208.074 204.227 206.466 204.648 205.077 205.47C204.102 206.339 203.274 207.345 202.619 208.454C200.901 210.501 198.843 212.265 196.526 213.677C192.928 215.984 189.173 218.059 185.285 219.889L190.109 229.86C193.155 227.728 203.026 221.904 203.137 221.865C204.153 221.584 226.666 225.829 234.8 226.013C234.931 226.011 235.058 225.969 235.161 225.892C235.265 225.815 235.339 225.708 235.372 225.587C235.406 225.466 235.397 225.338 235.346 225.222C235.296 225.106 235.208 225.01 235.094 224.947C233.216 223.823 227.478 222.96 224.036 222.563C229.088 222.957 234.169 222.886 239.207 222.35C239.32 222.314 239.42 222.247 239.494 222.157C239.567 222.068 239.612 221.959 239.621 221.846C239.631 221.732 239.606 221.618 239.548 221.519C239.491 221.419 239.404 221.337 239.298 221.284Z" fill="#FCEFEB"/>
<path d="M133.121 203.027C136.319 205.537 162.569 229.549 168.124 226.923C178.279 222.136 194.059 214.326 199.685 209.394C201.635 213.638 206.093 223.386 206.022 224.045C205.9 225.179 178.523 244.075 169.201 249.24C168.066 249.94 166.832 250.478 165.535 250.838C163.497 251.153 161.41 251.007 159.442 250.412C143.814 246.778 127.251 234.297 114.629 224.782L133.121 203.027Z" fill="#2C120B"/>
<path d="M200.588 212.475C199.207 213.357 197.998 214.463 197.014 215.741C196.709 216.138 196.09 215.663 196.395 215.266C197.42 213.935 198.677 212.781 200.111 211.855C200.538 211.584 201.015 212.194 200.588 212.475Z" fill="#B2482E"/>
<path d="M201.493 215.198C200.224 216.16 198.902 217.055 197.532 217.881C197.446 217.936 197.342 217.957 197.24 217.941C197.138 217.925 197.047 217.872 196.984 217.794C196.953 217.755 196.93 217.71 196.917 217.662C196.904 217.615 196.901 217.565 196.908 217.516C196.916 217.467 196.934 217.42 196.961 217.378C196.988 217.336 197.023 217.3 197.065 217.271C198.431 216.444 199.75 215.548 201.015 214.587C201.422 214.277 201.889 214.897 201.493 215.198Z" fill="#B2482E"/>
<path d="M202.63 219.277L199.584 221.214C199.542 221.244 199.494 221.266 199.443 221.278C199.392 221.291 199.339 221.293 199.287 221.286C199.183 221.272 199.088 221.218 199.025 221.137C198.962 221.056 198.935 220.954 198.95 220.854C198.965 220.755 199.021 220.665 199.106 220.604L202.153 218.667C202.24 218.611 202.346 218.59 202.45 218.606C202.553 218.622 202.647 218.675 202.711 218.754C202.772 218.837 202.796 218.938 202.779 219.038C202.762 219.137 202.705 219.227 202.62 219.287L202.63 219.277Z" fill="#B2482E"/>
<path d="M204.518 222.466C203.981 222.533 203.459 222.687 202.975 222.921C202.506 223.142 202.078 223.433 201.706 223.783C201.637 223.858 201.541 223.905 201.438 223.916C201.335 223.927 201.231 223.9 201.147 223.841C201.106 223.81 201.072 223.772 201.047 223.728C201.022 223.685 201.006 223.637 201 223.587C200.995 223.538 200.999 223.488 201.014 223.44C201.029 223.392 201.053 223.347 201.086 223.309C201.984 222.438 203.159 221.876 204.427 221.71C204.532 221.704 204.636 221.735 204.719 221.798C204.801 221.861 204.856 221.95 204.874 222.049C204.882 222.149 204.85 222.248 204.784 222.326C204.718 222.404 204.623 222.454 204.518 222.466Z" fill="#B2482E"/>
<path d="M216.298 208.211C213.008 212.029 209.017 216.303 203.361 216.09C202.691 216.09 202.853 215.121 203.513 215.121C208.733 215.324 212.48 211.089 215.486 207.601C215.912 207.117 216.714 207.737 216.298 208.221V208.211Z" fill="#E57B61"/>
<path d="M223.315 221.912C219.203 220.06 214.638 219.313 210.114 219.752C209.991 219.748 209.873 219.701 209.783 219.622C209.692 219.542 209.635 219.434 209.62 219.317C209.605 219.201 209.635 219.083 209.703 218.985C209.771 218.887 209.873 218.816 209.992 218.783C214.707 218.319 219.464 219.093 223.752 221.021C223.814 221.048 223.869 221.086 223.916 221.133C223.963 221.181 223.999 221.236 224.023 221.297C224.047 221.358 224.058 221.422 224.056 221.487C224.054 221.552 224.039 221.616 224.011 221.675C223.983 221.734 223.943 221.788 223.893 221.832C223.843 221.876 223.785 221.911 223.721 221.934C223.658 221.957 223.59 221.968 223.522 221.966C223.454 221.964 223.387 221.949 223.325 221.922L223.315 221.912Z" fill="#E57B61"/>
<path d="M221.568 212.563C222.553 215.936 223.862 219.215 225.478 222.359C225.773 222.931 224.808 223.328 224.524 222.728C222.91 219.581 221.598 216.303 220.604 212.931C220.431 212.321 221.386 211.962 221.568 212.563Z" fill="#E57B61"/>
<path d="M51.5575 180.788C52.9142 180.464 54.3338 180.464 55.6905 180.788C57.0444 181.123 58.4589 181.169 59.8336 180.924C60.518 180.785 61.1335 180.43 61.5811 179.917C62.0287 179.404 62.2823 178.762 62.3012 178.094C62.1895 176.767 60.2703 175.837 59.2548 176.815C61.1842 175.478 61.9864 172.59 60.4835 170.827C58.9806 169.063 55.2437 169.78 55.0304 172.048C54.2384 170.633 51.9231 170.507 50.6842 171.602C50.1095 172.193 49.7215 172.927 49.5652 173.719C49.4089 174.511 49.4905 175.329 49.8007 176.079C49.1625 175.788 48.4441 175.698 47.7488 175.822C47.0535 175.945 46.4173 176.276 45.9318 176.767C45.5941 177.237 45.3497 177.763 45.2108 178.317L42.865 185.691C42.5855 186.463 42.3849 187.258 42.2659 188.066C42.1237 189.267 42.2659 190.604 41.5348 191.573C41.2403 191.951 40.8138 192.232 40.5193 192.591C39.321 193.899 39.6155 196.011 40.7021 197.436C41.9072 198.739 43.4318 199.738 45.1397 200.343C48.3656 201.747 51.6829 202.951 55.071 203.948C56.521 204.305 57.9269 204.808 59.2649 205.45C60.536 206.243 61.7598 207.104 62.9308 208.027C65.9263 210.126 69.5052 211.333 73.2176 211.496C73.1483 211.103 73.2186 210.699 73.4172 210.348C73.6159 209.997 73.9316 209.719 74.3143 209.558C74.4178 209.908 74.6079 210.229 74.8687 210.494C75.1294 210.759 75.4532 210.961 75.8126 211.081C76.172 211.202 76.5565 211.238 76.9337 211.187C77.311 211.137 77.6699 211 77.9801 210.789C78.2599 210.539 78.4814 210.236 78.6304 209.899C78.7793 209.562 78.8523 209.199 78.8447 208.834C78.837 208.468 78.7488 208.108 78.5859 207.777C78.423 207.446 78.1889 207.152 77.8989 206.913C77.2625 206.48 76.4817 206.285 75.7049 206.366C74.928 206.446 74.2091 206.796 73.6847 207.349C72.1273 204.842 69.7517 202.892 66.9216 201.796C65.8046 201.37 63.9463 201.651 64.19 202.765C63.9391 201.507 63.334 200.336 62.4396 199.381C61.5452 198.425 60.3952 197.719 59.1126 197.339C59.2145 196.054 58.8388 194.775 58.0515 193.728C57.2641 192.681 56.1155 191.932 54.807 191.612C55.6803 190.527 55.2234 188.967 54.7359 187.668C53.9743 185.73 53.2229 183.724 52.4613 181.757L51.5575 180.788Z" fill="#B2482E"/>
<path opacity="0.43" d="M91.4861 199.132L88.6123 204.481L96.726 199.665L91.4861 199.132Z" fill="#E57B61"/>
<path d="M1.08859 140.497C3.87099 142.125 10.1771 149.373 12.2588 151.728C12.7564 152.406 5.05911 141.321 3.29218 138.22C3.0496 137.773 2.97437 137.26 3.07894 136.766C3.10887 136.679 3.16205 136.6 3.23333 136.538C3.30461 136.476 3.39152 136.432 3.48562 136.412C3.57972 136.391 3.67777 136.395 3.77023 136.421C3.86268 136.447 3.94638 136.496 4.01316 136.563C6.48076 138.888 15.945 151.922 15.1022 149.383L9.66936 137.755C9.26317 136.854 8.96868 135.633 9.50688 134.935C9.55599 134.874 9.6179 134.823 9.68864 134.787C9.75937 134.75 9.83739 134.728 9.91768 134.721C9.99797 134.715 10.0788 134.724 10.1549 134.75C10.2311 134.775 10.3009 134.815 10.3599 134.867C15.2545 139.315 17.6104 146.001 23.0228 149.77C23.1065 149.83 23.2062 149.867 23.3104 149.875C23.4146 149.884 23.5192 149.864 23.6123 149.819C23.7055 149.773 23.7834 149.704 23.8371 149.618C23.8909 149.533 23.9184 149.434 23.9165 149.334C23.8149 147.639 21.2661 141.447 21.6418 139.79C21.661 139.685 21.7127 139.587 21.7903 139.511C21.8679 139.434 21.9679 139.381 22.0773 139.359C22.1866 139.338 22.3003 139.347 22.4037 139.388C22.5071 139.428 22.5955 139.497 22.6573 139.586C24.5156 141.728 28.9735 148.424 30.6389 150.691C31.5854 151.779 32.194 153.098 32.3957 154.499C32.3082 155.651 32.0412 156.785 31.6036 157.862C31.0651 160.183 30.9313 162.573 31.2076 164.936C31.5665 168.675 32.1839 172.388 33.0557 176.05L22.901 178.521C22.7081 175.226 21.3778 165.275 21.327 165.178C20.9615 164.335 4.92708 151.612 0.134037 146.263C0.0538104 146.176 0.0068257 146.065 0.000687624 145.949C-0.00545045 145.834 0.0296478 145.719 0.100258 145.625C0.170868 145.531 0.272819 145.462 0.389579 145.43C0.506339 145.398 0.631016 145.405 0.743328 145.449C2.65242 146.069 6.58231 149.441 8.86713 151.524C5.68315 148.35 2.82666 144.891 0.337144 141.195C0.283593 141.095 0.264942 140.982 0.283935 140.871C0.302928 140.761 0.358566 140.659 0.442665 140.581C0.526763 140.503 0.634901 140.453 0.751168 140.437C0.867435 140.422 0.985687 140.443 1.08859 140.497Z" fill="#FCEFEB"/>
<path d="M104.007 201.913C98.2713 205.232 91.838 207.301 85.1671 207.971C78.4961 208.642 71.7524 207.896 65.4185 205.789C52.8266 201.506 35.0863 166.059 33.2178 159.47C33.2178 159.47 11.3749 172.261 14.0761 170.023C16.5031 186.69 32.6491 212.582 44.8551 224.733C66.4644 246.226 99.8025 228.677 104.9 227.427C109.613 226.152 114.14 224.319 118.375 221.971C127.515 217.223 169.413 196.225 177.436 189.907C167.697 185.013 182.452 156.747 155.877 159.257C148.484 162.096 88.3784 170.623 95.8015 206.797L104.007 201.913Z" fill="#853622"/>
<path d="M85.589 188.056C85.689 188.489 85.5879 188.939 85.3076 189.308C85.0272 189.677 84.5901 189.936 84.0908 190.029C83.7757 190.095 83.4448 190.075 83.143 189.973C82.8411 189.87 82.583 189.69 82.4037 189.457C82.2388 189.225 82.1501 188.959 82.1471 188.688C82.144 188.416 82.2268 188.148 82.3864 187.914C82.5461 187.68 82.7767 187.488 83.0532 187.359C83.3298 187.23 83.6418 187.168 83.9558 187.181H84.4418C84.7174 187.192 84.9805 187.284 85.1886 187.441C85.3967 187.597 85.5378 187.81 85.589 188.045V188.056Z" fill="white"/>
<path d="M86.1613 187.975C86.2469 188.412 86.1915 188.861 86.0019 189.27C85.8123 189.679 85.4965 190.029 85.0924 190.28C84.6166 190.557 84.0524 190.682 83.4889 190.637C83.1351 190.599 82.7968 190.484 82.5039 190.3C82.211 190.116 81.9724 189.87 81.8091 189.583C81.6457 189.297 81.5626 188.978 81.5671 188.656C81.5715 188.333 81.6634 188.016 81.8346 187.734C82.0315 187.393 82.3259 187.106 82.6872 186.904C83.1049 186.689 83.5814 186.585 84.0616 186.604C84.3981 186.595 84.7339 186.638 85.0542 186.731C85.3408 186.842 85.5921 187.016 85.7855 187.238C85.9788 187.459 86.108 187.72 86.1613 187.998C86.198 188.084 86.2126 188.175 86.2041 188.266C86.1956 188.357 86.1642 188.446 86.1123 188.524C86.0604 188.602 85.9894 188.669 85.9046 188.719C85.8199 188.768 85.7238 188.8 85.6235 188.811C85.5233 188.822 85.4217 188.812 85.3264 188.781C85.2311 188.751 85.1447 188.702 85.0738 188.637C85.0028 188.572 84.9493 188.493 84.9172 188.406C84.8852 188.32 84.8754 188.227 84.8888 188.137C84.8888 188.033 84.8888 188.137 84.8888 188.137C84.8915 188.102 84.8915 188.068 84.8888 188.033C84.8888 187.975 84.8888 188.033 84.8888 188.033L84.8124 187.929C84.7361 187.826 84.927 188.01 84.8124 187.929L84.7106 187.86C84.7106 187.803 84.7106 187.86 84.7106 187.86C84.7106 187.86 84.5706 187.803 84.5579 187.791H83.8707H83.6416C83.7562 187.791 83.7816 187.791 83.6416 187.791H83.5144H83.4253C83.3362 187.86 83.4253 187.791 83.4253 187.791C83.3681 187.832 83.3086 187.871 83.2471 187.906L83.1708 187.964C83.069 188.033 83.2853 187.86 83.1708 187.964C83.1175 188.008 83.0705 188.059 83.0308 188.114L82.9672 188.183C82.8908 188.287 83.0435 188.056 82.9672 188.183L82.8781 188.356V188.436C82.8781 188.31 82.8781 188.552 82.8781 188.436C82.872 188.501 82.872 188.567 82.8781 188.632C82.8727 188.663 82.8727 188.694 82.8781 188.724C82.8781 188.552 82.8781 188.632 82.8781 188.724C82.8781 188.817 82.8781 188.84 82.8781 188.897C82.8781 188.955 82.8781 188.978 82.8781 188.897V188.989V189.082C82.8145 189.012 82.9545 189.231 82.8781 189.082L83.0308 189.266C83.0308 189.266 83.0308 189.335 83.0308 189.266C83.0666 189.287 83.097 189.314 83.1199 189.347L83.2217 189.416C83.0944 189.358 83.3362 189.496 83.2217 189.416H83.3362H83.4253H83.6544C83.7051 189.421 83.7564 189.421 83.8071 189.416H83.9725L84.2016 189.335C84.2432 189.302 84.2905 189.274 84.3416 189.254L84.4307 189.185H84.4943C84.4052 189.254 84.4179 189.243 84.4943 189.185L84.647 189.024L84.7233 188.932C84.7233 189.012 84.7233 189.024 84.7233 188.932V188.863C84.7233 188.863 84.787 188.678 84.8379 188.632C84.8379 188.782 84.8888 188.586 84.8379 188.632V188.482C84.8379 188.482 84.8379 188.402 84.8379 188.367C84.8442 188.275 84.8442 188.183 84.8379 188.091C84.8198 187.932 84.871 187.774 84.9803 187.649C85.0897 187.524 85.2487 187.443 85.4233 187.422C85.6016 187.409 85.7785 187.46 85.9163 187.563C86.0541 187.667 86.142 187.814 86.1613 187.975Z" fill="#E57B61"/>
<path d="M69.0746 187.474C69.0281 187.772 69.0749 188.075 69.2092 188.347C69.3435 188.619 69.5593 188.847 69.8292 189.002C70.0992 189.157 70.4112 189.232 70.726 189.218C71.0407 189.204 71.344 189.102 71.5976 188.923C71.8512 188.745 72.0437 188.499 72.1508 188.216C72.2579 187.933 72.2748 187.627 72.1993 187.335C72.1238 187.043 71.9594 186.779 71.7268 186.576C71.4942 186.374 71.2038 186.241 70.8923 186.196C70.6849 186.165 70.4733 186.175 70.2696 186.222C70.0659 186.27 69.8741 186.356 69.7052 186.475C69.5363 186.594 69.3937 186.743 69.2855 186.915C69.1773 187.086 69.1056 187.276 69.0746 187.474Z" fill="#2C120B"/>
<path d="M62.6369 186.041C62.302 187.569 62.293 189.146 62.6106 190.678C62.9281 192.21 63.5656 193.665 64.4851 194.956L67.3995 187.068C67.856 186.164 67.9708 185.137 67.7245 184.161C67.3488 183.192 65.8763 182.698 65.2264 183.483C64.595 183.65 64.022 183.976 63.5667 184.426C63.1114 184.875 62.7904 185.433 62.6369 186.041Z" fill="#E57B61"/>
<path d="M31.8775 161.631C32.2431 162.93 32.5985 164.238 32.9539 165.508C32.9732 165.554 32.9828 165.604 32.982 165.654C32.9813 165.704 32.9702 165.753 32.9495 165.799C32.9287 165.845 32.8987 165.886 32.8611 165.921C32.8236 165.956 32.7792 165.983 32.7305 166.002C32.6818 166.02 32.6298 166.029 32.5775 166.029C32.5251 166.028 32.4733 166.017 32.4253 165.997C32.3772 165.978 32.3336 165.949 32.2971 165.913C32.2607 165.877 32.2319 165.835 32.2126 165.789C31.8572 164.49 31.5018 163.182 31.1362 161.913C31.1017 161.818 31.1055 161.715 31.1468 161.624C31.1882 161.532 31.2642 161.459 31.3596 161.418C31.4082 161.399 31.4603 161.39 31.5128 161.391C31.5652 161.391 31.6171 161.402 31.6653 161.422C31.7135 161.441 31.757 161.47 31.7935 161.506C31.8299 161.542 31.8585 161.585 31.8775 161.631Z" fill="#B2482E"/>
<path d="M27.9984 164.122L28.5874 167.843C28.6686 168.327 27.8765 168.414 27.7953 167.94L27.186 164.219C27.1048 163.734 27.8968 163.647 27.9781 164.131L27.9984 164.122Z" fill="#B2482E"/>
<path d="M25.7849 165.662L26.5872 169.083C26.5943 169.132 26.5909 169.183 26.5774 169.231C26.5638 169.28 26.5403 169.325 26.5081 169.365C26.476 169.405 26.4359 169.438 26.3902 169.462C26.3445 169.487 26.2941 169.503 26.2419 169.509C26.1377 169.518 26.0338 169.489 25.951 169.428C25.8682 169.367 25.8126 169.278 25.7951 169.18C25.5311 168.036 25.2569 166.893 24.9929 165.749C24.9869 165.7 24.9912 165.649 25.0055 165.601C25.0199 165.553 25.044 165.508 25.0765 165.469C25.1091 165.43 25.1494 165.397 25.1951 165.373C25.2409 165.349 25.2912 165.333 25.3432 165.328C25.3952 165.322 25.4479 165.326 25.4982 165.34C25.5486 165.353 25.5956 165.377 25.6366 165.408C25.6776 165.439 25.7118 165.477 25.7373 165.521C25.7627 165.564 25.7789 165.612 25.7849 165.662Z" fill="#B2482E"/>
<path d="M23.2157 166.728C23.5915 167.988 23.9774 169.248 24.3632 170.517C24.3826 170.564 24.3921 170.613 24.3914 170.663C24.3906 170.713 24.3796 170.763 24.3588 170.808C24.3381 170.854 24.308 170.896 24.2705 170.931C24.2329 170.966 24.1885 170.993 24.1398 171.011C24.0912 171.03 24.0391 171.039 23.9868 171.038C23.9344 171.038 23.8827 171.027 23.8346 171.007C23.7865 170.987 23.743 170.959 23.7065 170.923C23.67 170.887 23.6413 170.845 23.6219 170.798C23.2361 169.529 22.8502 168.269 22.4744 167.009C22.4551 166.963 22.4456 166.913 22.4463 166.863C22.4471 166.813 22.4582 166.764 22.4789 166.718C22.5208 166.625 22.5995 166.552 22.6978 166.515C22.7961 166.478 22.9059 166.479 23.0031 166.519C23.1002 166.559 23.1767 166.635 23.2157 166.728Z" fill="#B2482E"/>
<path d="M107.805 201.719C103.948 203.416 99.9326 204.766 95.8121 205.75C95.76 205.756 95.707 205.753 95.6563 205.74C95.6055 205.727 95.5579 205.705 95.5163 205.674C95.4747 205.644 95.44 205.605 95.414 205.562C95.3881 205.518 95.3715 205.47 95.3653 205.42C95.3536 205.32 95.3831 205.22 95.4476 205.14C95.512 205.061 95.6063 205.008 95.7105 204.994C99.7647 204.031 103.715 202.707 107.51 201.04C107.977 200.837 108.262 201.544 107.805 201.748V201.719Z" fill="#B2482E"/>
<path d="M17.4983 148.346C14.6047 150.41 11.3431 151.957 7.87161 152.91C7.30295 153.065 6.93737 152.242 7.51619 152.077C10.9073 151.148 14.0958 149.644 16.9296 147.639C17.0279 147.567 17.1522 147.535 17.275 147.551C17.3978 147.566 17.5092 147.628 17.5846 147.721C17.66 147.815 17.6933 147.934 17.6771 148.051C17.6609 148.168 17.5966 148.274 17.4983 148.346Z" fill="#E57B61"/>
</svg>
