<svg width="309" height="54" viewBox="0 0 309 54" fill="none" xmlns="http://www.w3.org/2000/svg">
<path opacity="0.5" fill-rule="evenodd" clip-rule="evenodd" d="M195 53.9996H24C10.7452 53.9996 0 43.2545 0 29.9996V0.000244141C0.566245 1.66095 1.08936 3.22105 1.58235 4.69128C7.15288 21.3043 8.87598 26.4431 25.4988 35.6174C43.9173 45.7828 60.7899 46.213 85.6564 45.984C97.6327 45.8736 104.531 44.6967 111.509 43.5061C119.019 42.2247 126.622 40.9275 140.748 40.9275C166.293 40.9275 191.249 48.9602 195 53.9996Z" fill="url(#paint0_linear_561_25283)"/>
<path opacity="0.5" fill-rule="evenodd" clip-rule="evenodd" d="M309 54H24C10.7451 54 0 43.2548 0 30V14C0.490668 14.5099 0.990782 15.0514 1.50038 15.626C1.94848 16.1312 2.38499 16.625 2.81179 17.1078C13.7381 29.4673 18.3009 34.6287 48.1882 40.6985C78.5489 46.8644 101.399 50.9554 141.468 50.7926C160.733 50.7143 171.37 49.9962 182.103 49.2716C193.692 48.4892 205.394 47.6992 228.192 47.6992C260.429 47.6992 293.34 50.894 309 54Z" fill="url(#paint1_linear_561_25283)"/>
<defs>
<linearGradient id="paint0_linear_561_25283" x1="0" y1="0.000244141" x2="27.777" y2="100.307" gradientUnits="userSpaceOnUse">
<stop stop-color="#25109A"/>
<stop offset="1" stop-color="#7F028C"/>
</linearGradient>
<linearGradient id="paint1_linear_561_25283" x1="0" y1="14" x2="10.1853" y2="92.6815" gradientUnits="userSpaceOnUse">
<stop stop-color="#25109A"/>
<stop offset="1" stop-color="#7F028C"/>
</linearGradient>
</defs>
</svg>
