<svg width="307" height="56" viewBox="0 0 307 56" fill="none" xmlns="http://www.w3.org/2000/svg">
<path opacity="0.5" fill-rule="evenodd" clip-rule="evenodd" d="M-0.00112915 4.19617e-05H283C296.255 4.19617e-05 307 10.7452 307 24V30C305.117 29.0791 303.044 27.7881 300.776 26.0314C300.343 25.6961 299.921 25.3684 299.509 25.048C288.954 16.8458 284.547 13.4205 255.676 9.39249C226.348 5.30061 204.275 2.58567 165.569 2.69372C146.959 2.74567 136.683 3.22223 126.316 3.70309C115.12 4.22234 103.817 4.7466 81.7933 4.7466C47.7906 4.7466 13.0125 2.21879 -0.00112915 4.19617e-05Z" fill="url(#paint0_linear_561_25290)"/>
<path opacity="0.5" fill-rule="evenodd" clip-rule="evenodd" d="M144 0.00019455H283C296.255 0.00019455 307 10.7454 307 24.0002V55.9999C305.984 54.2486 304.881 51.7093 303.701 48.1551C297.107 28.2951 296.351 26.9186 280.375 15.0937C266.929 5.14121 253.447 3.93043 232.932 4.1296C223.038 4.22565 217.381 5.34311 211.653 6.47447C205.504 7.68905 199.274 8.91965 187.634 8.91965C169.362 8.91965 150.667 4.12983 144 0.00019455Z" fill="url(#paint1_linear_561_25290)"/>
<defs>
<linearGradient id="paint0_linear_561_25290" x1="307" y1="30" x2="301.192" y2="-29.4324" gradientUnits="userSpaceOnUse">
<stop stop-color="#25109A"/>
<stop offset="1" stop-color="#7F028C"/>
</linearGradient>
<linearGradient id="paint1_linear_561_25290" x1="307" y1="56" x2="272.584" y2="-44.1755" gradientUnits="userSpaceOnUse">
<stop stop-color="#25109A"/>
<stop offset="1" stop-color="#7F028C"/>
</linearGradient>
</defs>
</svg>
