<svg width="688" height="127" viewBox="0 0 688 127" fill="none" xmlns="http://www.w3.org/2000/svg">
<g opacity="0.8">
<path opacity="0.5" fill-rule="evenodd" clip-rule="evenodd" d="M-0.000793457 -6.10352e-05H640C666.51 -6.10352e-05 688 21.4903 688 47.9999V68.5747C683.781 66.4697 679.134 63.5187 674.051 59.5028C673.081 58.7364 672.136 57.9874 671.212 57.255C647.558 38.5062 637.68 30.6766 572.98 21.4691C507.254 12.1157 457.788 5.90985 371.046 6.15682C329.34 6.27556 306.312 7.36491 283.078 8.46407C257.988 9.65099 232.657 10.8494 183.302 10.8494C107.102 10.8494 29.1653 5.07153 -0.000793457 -6.10352e-05Z" fill="url(#paint0_linear_149_14357)"/>
<path opacity="0.5" fill-rule="evenodd" clip-rule="evenodd" d="M322.898 -3.8147e-05H640C666.51 -3.8147e-05 688 21.4903 688 48V126.742C685.724 122.778 683.254 117.031 680.61 108.986C665.841 64.0386 664.148 60.9232 628.363 34.1608C598.245 11.6359 568.048 8.89561 522.096 9.34637C499.935 9.56376 487.263 12.0928 474.434 14.6534C460.661 17.4023 446.706 20.1874 420.634 20.1874C379.705 20.1874 337.83 9.34644 322.898 -3.8147e-05Z" fill="url(#paint1_linear_149_14357)"/>
</g>
<defs>
<linearGradient id="paint0_linear_149_14357" x1="688" y1="68.5747" x2="674.464" y2="-67.2256" gradientUnits="userSpaceOnUse">
<stop stop-color="#25109A"/>
<stop offset="1" stop-color="#7F028C"/>
</linearGradient>
<linearGradient id="paint1_linear_149_14357" x1="688" y1="126.742" x2="609.469" y2="-99.4802" gradientUnits="userSpaceOnUse">
<stop stop-color="#25109A"/>
<stop offset="1" stop-color="#7F028C"/>
</linearGradient>
</defs>
</svg>
