<svg width="229" height="98" viewBox="0 0 229 98" fill="none" xmlns="http://www.w3.org/2000/svg">
<g opacity="0.8">
<path opacity="0.5" fill-rule="evenodd" clip-rule="evenodd" d="M87.0002 0.00143433H205C218.255 0.00143433 229 10.7466 229 24.0014V79.001C228.116 76.5304 227.155 72.9481 226.128 67.9343C225.37 64.2381 224.717 60.9123 224.125 57.8951C220.124 37.5176 218.886 31.2143 206.945 19.9611C193.715 7.49217 181.595 6.96453 163.733 7.24549C155.131 7.38081 150.176 8.82446 145.163 10.2848C139.769 11.8566 134.307 13.4477 124.16 13.4477C108.215 13.4477 92.5887 6.00726 87.0002 0.00143433Z" fill="url(#paint0_linear_939_29790)"/>
<path opacity="0.5" fill-rule="evenodd" clip-rule="evenodd" d="M0.00109863 0.000724792H205C218.255 0.000724792 229 10.7459 229 24.0007V97.9997C227.596 94.9915 226.049 90.7745 224.357 85.0361C224.035 83.9408 223.72 82.8704 223.413 81.8238C215.54 55.03 212.252 43.8408 190.716 30.6824C168.84 17.3157 152.375 8.44688 123.503 8.79983C109.621 8.96953 101.957 10.5263 94.2234 12.0971C85.8724 13.7933 77.4409 15.5059 61.0132 15.5059C35.65 15.5059 9.70854 7.24857 0.00109863 0.000724792Z" fill="url(#paint1_linear_939_29790)"/>
</g>
<defs>
<linearGradient id="paint0_linear_939_29790" x1="229" y1="79.001" x2="161.875" y2="-41.6542" gradientUnits="userSpaceOnUse">
<stop stop-color="#25109A"/>
<stop offset="1" stop-color="#7F028C"/>
</linearGradient>
<linearGradient id="paint1_linear_939_29790" x1="229" y1="98" x2="158.107" y2="-67.6595" gradientUnits="userSpaceOnUse">
<stop stop-color="#25109A"/>
<stop offset="1" stop-color="#7F028C"/>
</linearGradient>
</defs>
</svg>
