<svg width="1260" height="260" viewBox="0 0 1260 260" fill="none" xmlns="http://www.w3.org/2000/svg">
<g opacity="0.8">
<path opacity="0.5" fill-rule="evenodd" clip-rule="evenodd" d="M788.476 0H1212C1238.51 0 1260 21.4903 1260 48V199.528C1257.06 193.288 1253.87 184.24 1250.46 171.576C1247.95 162.241 1245.78 153.841 1243.81 146.221C1230.52 94.7542 1226.41 78.8344 1186.77 50.4126C1142.83 18.9205 1102.59 17.5879 1043.28 18.2975C1014.71 18.6393 998.257 22.2854 981.613 25.9737C963.699 29.9435 945.565 33.9621 911.871 33.9621C858.921 33.9621 807.031 15.1689 788.476 0Z" fill="url(#paint0_linear_143_13822)"/>
<path opacity="0.5" fill-rule="evenodd" clip-rule="evenodd" d="M1258.72 223.055C1259.56 219.506 1260 215.805 1260 212V47.9998C1260 21.4902 1238.51 -0.000167847 1212 -0.000167847H499C531.261 16.6402 617.467 35.5975 701.751 35.5975C756.343 35.5975 784.362 31.6655 812.114 27.7711C837.814 24.1647 863.284 20.5904 909.416 20.2008C1005.36 19.3904 1060.08 39.7527 1132.78 70.442C1204.34 100.653 1215.27 126.342 1241.43 187.859C1242.45 190.262 1243.5 192.72 1244.57 195.235C1249.68 207.218 1254.4 216.311 1258.72 223.055Z" fill="url(#paint1_linear_143_13822)"/>
</g>
<g opacity="0.8">
<path opacity="0.5" fill-rule="evenodd" clip-rule="evenodd" d="M688.001 260H48C21.4903 260 0 238.51 0 212V160.948C4.21909 163.988 8.86621 168.251 13.9492 174.052C14.9192 175.159 15.8642 176.24 16.7881 177.298C40.4416 204.38 50.3195 215.689 115.02 228.989C180.746 242.5 230.211 251.464 316.954 251.107C358.66 250.935 381.687 249.362 404.922 247.774C430.012 246.06 455.343 244.329 504.698 244.329C580.898 244.329 658.835 252.675 688.001 260Z" fill="url(#paint2_linear_143_13822)"/>
<path opacity="0.5" fill-rule="evenodd" clip-rule="evenodd" d="M362.614 260H48C21.4903 260 0 238.51 0 212V79.1782C2.24833 84.8942 4.68577 93.1234 7.29088 104.575C22.0602 169.5 23.7534 174 59.538 212.657C89.6564 245.193 119.853 249.151 165.806 248.5C187.967 248.186 200.638 244.533 213.467 240.834C227.24 236.864 241.195 232.841 267.267 232.841C306.189 232.841 345.965 247.001 362.614 260Z" fill="url(#paint3_linear_143_13822)"/>
</g>
<defs>
<linearGradient id="paint0_linear_143_13822" x1="1260" y1="199.528" x2="1116.78" y2="-138.924" gradientUnits="userSpaceOnUse">
<stop stop-color="#25109A"/>
<stop offset="1" stop-color="#7F028C"/>
</linearGradient>
<linearGradient id="paint1_linear_143_13822" x1="1260" y1="223.055" x2="1139.59" y2="-187.761" gradientUnits="userSpaceOnUse">
<stop stop-color="#25109A"/>
<stop offset="1" stop-color="#7F028C"/>
</linearGradient>
<linearGradient id="paint2_linear_143_13822" x1="0" y1="160.948" x2="27.9423" y2="355.03" gradientUnits="userSpaceOnUse">
<stop stop-color="#25109A"/>
<stop offset="1" stop-color="#7F028C"/>
</linearGradient>
<linearGradient id="paint3_linear_143_13822" x1="0" y1="79.1782" x2="144.425" y2="368.803" gradientUnits="userSpaceOnUse">
<stop stop-color="#25109A"/>
<stop offset="1" stop-color="#7F028C"/>
</linearGradient>
</defs>
</svg>
