<svg width="360" height="480" viewBox="0 0 360 480" fill="none" xmlns="http://www.w3.org/2000/svg">
<path d="M360 451.508C360 451.508 343.75 463.626 313.5 463.626C213.123 463.626 150.723 433.39 55.625 463.626C20.5 474.794 0 468.333 0 468.333V44.0192C0 44.0192 14 27.5471 47.75 27.5471C99.375 27.5471 99.875 32.0181 121.375 32.0181C188.75 32.0181 217.875 5.19214 256.625 5.19214C284.25 5.19214 308.375 31.7828 335.75 31.7828C351.5 31.7828 360 29.0767 360 29.0767V451.508Z" fill="#F3F3F3"/>
<path d="M0.000137329 19.8815C0.000137329 19.8815 16.2501 6.98635 46.5001 6.98635C146.877 6.98635 209.277 39.1598 304.375 6.98635C339.5 -4.89712 360 1.97853 360 1.97853L360 434.685C360 434.685 346 452.213 312.25 452.213C260.625 452.213 260.125 447.455 238.625 447.455C171.25 447.455 142.125 476 103.375 476C76 476 51.625 447.706 24.25 447.706C8.5 447.706 0 450.585 0 450.585L0.000137329 19.8815Z" fill="url(#paint0_linear_939_43525)"/>
<path opacity="0.5" fill-rule="evenodd" clip-rule="evenodd" d="M360 420.759V434.718C360 434.718 346.5 452 311.996 452.233C282.054 452.434 269.074 450.583 258.935 449.137C255.332 448.623 252.089 448.16 248.571 447.859C249.483 447.867 250.407 447.879 251.344 447.895C313.319 448.942 352.273 439.142 360 420.759Z" fill="url(#paint1_linear_939_43525)"/>
<path opacity="0.5" fill-rule="evenodd" clip-rule="evenodd" d="M0 433.304V450.625C0 450.625 8.45278 447.777 24.1153 447.777C37.9374 447.777 50.9705 454.924 63.9211 462.026C76.4768 468.911 88.9551 475.754 102 476C93.4585 473.466 72.221 462.929 55.6024 442.133C38.9839 421.337 11.6098 427.582 0 433.304Z" fill="url(#paint2_linear_939_43525)"/>
<path opacity="0.5" fill-rule="evenodd" clip-rule="evenodd" d="M93.0137 9.29576C126.229 17.7981 200.387 34.674 236.499 31.789C272.565 28.9077 304.5 11.7361 315.904 3.75C312.26 4.65802 308.414 5.77483 304.375 7.13938C242.659 27.9862 194.715 21.7753 141.225 14.8459C125.772 12.8442 109.857 10.7824 93.0137 9.29576Z" fill="url(#paint3_linear_939_43525)"/>
<defs>
<linearGradient id="paint0_linear_939_43525" x1="0" y1="0" x2="458.017" y2="346.4" gradientUnits="userSpaceOnUse">
<stop stop-color="#FF9679"/>
<stop offset="1" stop-color="#E55C79"/>
</linearGradient>
<linearGradient id="paint1_linear_939_43525" x1="248.571" y1="420.759" x2="265.051" y2="479.079" gradientUnits="userSpaceOnUse">
<stop stop-color="#25109A"/>
<stop offset="1" stop-color="#7F028C"/>
</linearGradient>
<linearGradient id="paint2_linear_939_43525" x1="0" y1="427.75" x2="37.3016" y2="506.605" gradientUnits="userSpaceOnUse">
<stop stop-color="#25109A"/>
<stop offset="1" stop-color="#7F028C"/>
</linearGradient>
<linearGradient id="paint3_linear_939_43525" x1="93.0137" y1="3.75" x2="100.119" y2="59.5794" gradientUnits="userSpaceOnUse">
<stop stop-color="#25109A"/>
<stop offset="1" stop-color="#7F028C"/>
</linearGradient>
</defs>
</svg>
